<?xml version="1.0" encoding="UTF-8"?>
<svg id="Layer_1" data-name="Layer 1" xmlns="http://www.w3.org/2000/svg" viewBox="0 0 1920 1052.1">
  <defs>
    <style>
      .cls-1 {
        fill: #1e2436;
      }

      .cls-2 {
        fill: #8c2f4a;
      }

      .cls-3 {
        fill: #c8a24b;
      }

      .cls-4 {
        opacity: .1;
      }
    </style>
  </defs>
  <g class="cls-4">
    <path class="cls-3" d="M5.43,522.3c0-1.59.75-3.12,2.11-4.02,2.13-1.44,4.97-.79,6.33,1.42,19.4,31.48,89.2,57.84,125,59.59,37.03,1.77,75.06-6.54,123.3-26.97,37.21-15.72,65.8-24.04,94.97,12.59,38.52,48.34,27.98,129.36,21.67,177.78-8.58,66.14,6.54,108.55,32.5,170.53l2.82,6.78c14.13,33.99,27.48,66.1,59.4,82.74,2.27,1.17,3.19,4.04,2.05,6.4-1.13,2.35-3.88,3.31-6.15,2.14-34.91-18.18-49.55-53.42-63.72-87.49l-2.81-6.75c-26.61-63.51-42.11-107.03-33.18-175.62,6.1-46.85,16.31-125.29-19.65-170.41-25.32-31.79-48.8-24.92-84.47-9.82-49.53,20.94-88.75,29.48-127.17,27.63-38.11-1.85-110.31-28.31-132.29-63.95-.49-.81-.73-1.69-.73-2.57Z"/>
    <path class="cls-3" d="M328.24,550.84c0-2.52,1.97-4.65,4.51-4.78,36.75-2.06,76.21-24.48,114.36-46.19,17.68-10.06,34.39-19.54,50.34-26.74,65.27-29.41,128-22.2,191.87-11.46,134.45,22.61,252.01,135.49,308.86,237.34,26.97,48.3,56.51,112.75,45.46,182.93-5.47,34.9-12.26,65.61-27.55,102.12l-.95,2.27c-13.64,32.79-30.01,65.62-47.88,60.48-2.53-.72-3.99-3.35-3.27-5.92.74-2.53,3.38-3.99,5.92-3.25,4.52,1.29,15.24-4.13,36.4-54.98l.97-2.29c14.92-35.63,21.56-65.72,26.92-99.91,10.59-67.37-18.15-129.84-44.38-176.79-55.74-99.85-170.77-210.49-302.1-232.57-62.36-10.48-123.53-17.56-186.36,10.76-15.54,7-32.06,16.38-49.54,26.32-39.11,22.24-79.55,45.25-118.54,47.42-2.64.15-4.89-1.87-5.04-4.5,0-.09,0-.18,0-.26Z"/>
    <path class="cls-3" d="M373.44,627.88c0-.85.23-1.7.68-2.48,1.37-2.25,4.3-2.99,6.57-1.62,40.21,24.24,48.42,72.36,55.66,114.82.87,5.06,1.71,10.02,2.6,14.82,2.75,14.93,3.15,32.42,3.55,49.35.59,25.12,1.18,51.11,9.28,69.47,1.08,2.41-.02,5.24-2.45,6.3-2.42,1.07-5.23-.02-6.29-2.45-8.86-20.11-9.49-47.04-10.09-73.1-.4-17.3-.79-33.66-3.4-47.82-.89-4.86-1.75-9.85-2.62-14.95-6.9-40.44-14.72-86.25-51.17-108.24-1.49-.89-2.31-2.47-2.32-4.09Z"/>
    <path class="cls-3" d="M369.11,612.91c0-2.64,2.13-4.79,4.77-4.8,29.33-.07,50.79-5.62,75.81-12.86,2.54-.73,5.19.73,5.92,3.25.74,2.55-.72,5.19-3.27,5.93-24.85,7.2-47.92,13.16-78.44,13.24-2.64,0-4.78-2.13-4.79-4.76Z"/>
    <path class="cls-3" d="M275.85,546.23c0-2.12,1.41-4.06,3.55-4.63,29.6-7.85,41.08-37.53,52.18-66.22,2.92-7.58,5.69-14.71,8.78-21.44,11.97-26.13,20.15-55.39,28.06-83.7,1.92-6.89,3.83-13.72,5.78-20.45,18.9-65.31,18.71-131.27,18.55-201.29v-3.34c-.02-2.64,2.12-4.78,4.76-4.79,2.64-.01,4.78,2.13,4.79,4.77v3.34c.13,70.44.35,137.33-18.91,203.97-1.94,6.69-3.84,13.49-5.76,20.36-8.01,28.66-16.29,58.3-28.57,85.11-2.97,6.46-5.68,13.47-8.56,20.89-11.4,29.5-24.32,62.92-58.65,72.02-2.55.68-5.17-.85-5.84-3.4-.11-.41-.16-.82-.16-1.21Z"/>
    <path class="cls-3" d="M376.56,350.21c0-1.33.55-2.66,1.63-3.61,38.27-33.48,114.4-21.98,156.37-12.15,2.57.6,4.18,3.18,3.56,5.74-.6,2.58-3.17,4.17-5.74,3.57-40.18-9.42-112.84-20.63-147.9,10.02-1.99,1.75-5.01,1.55-6.75-.45-.78-.9-1.17-2.02-1.18-3.13Z"/>
    <path class="cls-3" d="M390.39,265.9c0-.13,0-.26.02-.38,1.02-13.4,20.98-24.39,38.58-34.1,5.69-3.12,11.05-6.09,14.55-8.52,5.68-3.96,11.35-8.19,17.35-12.66,29.1-21.7,62.08-46.32,101.79-41.67,2.63.31,4.51,2.65,4.2,5.3-.3,2.62-2.68,4.5-5.3,4.2-35.94-4.21-65.94,18.17-94.96,39.82-6.06,4.53-11.79,8.8-17.6,12.84-3.91,2.73-9.49,5.81-15.4,9.07-13.15,7.25-33.03,18.21-33.67,26.45-.2,2.64-2.5,4.6-5.13,4.4-2.5-.19-4.41-2.28-4.42-4.75Z"/>
    <path class="cls-3" d="M485.98,196.84c0-.88.24-1.77.74-2.57,1.41-2.23,4.37-2.89,6.6-1.48,7.53,4.76,19.06,5.06,31.27,5.38,11.99.3,24.39.61,34.74,5.27,15.36,6.89,30.6,18.41,45.34,29.53,3.79,2.88,7.55,5.71,11.25,8.43,17.6,12.88,44.23,29.96,72.23,29.48,21.19-.37,44.9-11.24,67.83-21.75,10.15-4.65,19.71-9.04,28.96-12.49,2.48-.92,5.22.34,6.15,2.82.93,2.46-.34,5.23-2.81,6.14-8.92,3.33-18.34,7.64-28.32,12.22-23.82,10.92-48.45,22.21-71.65,22.6-30.89.54-59.33-17.61-78.05-31.32-3.74-2.74-7.52-5.61-11.36-8.5-14.32-10.81-29.12-22-43.49-28.45-8.6-3.85-20.02-4.14-31.08-4.44-12.97-.32-26.36-.66-36.13-6.83-1.44-.91-2.22-2.45-2.23-4.03Z"/>
    <path class="cls-3" d="M641.64,267.69c0-1.72.92-3.39,2.55-4.24,2.33-1.24,5.23-.35,6.46,1.98,2.66,5.02,4.88,11.06,7.23,17.46,4.94,13.46,10.53,28.72,20.88,34.03,2.34,1.2,3.27,4.08,2.06,6.44-1.21,2.34-4.09,3.27-6.44,2.06-13.66-7-19.94-24.13-25.48-39.23-2.23-6.09-4.34-11.84-6.7-16.28-.38-.72-.55-1.46-.56-2.21Z"/>
    <path class="cls-3" d="M1,821.68c0-.53.09-1.07.28-1.61,3.2-9.03,8.91-15.19,16.99-18.32,24.15-9.35,62.79,11.4,88.36,25.13,5.7,3.05,10.63,5.7,14.04,7.23,8.24,3.72,16.8,8.33,25.85,13.22,17.85,9.63,36.3,19.6,53.12,22.84,22.5,4.37,34.63-6.38,48.68-18.81,8.19-7.26,16.65-14.75,27.72-19.72,2.42-1.07,5.24,0,6.32,2.41,1.1,2.42,0,5.24-2.4,6.32-9.74,4.37-17.65,11.37-25.3,18.15-14.6,12.94-29.71,26.31-56.84,21.05-18.25-3.53-37.35-13.84-55.84-23.81-8.89-4.81-17.29-9.34-25.23-12.92-3.7-1.67-8.78-4.4-14.63-7.54-22.57-12.1-60.34-32.38-80.39-24.63-5.43,2.1-9.17,6.22-11.43,12.6-.88,2.48-3.62,3.78-6.1,2.91-1.96-.7-3.18-2.53-3.19-4.5Z"/>
    <path class="cls-3" d="M149.9,857.05c0-1.16.41-2.33,1.26-3.24,1.79-1.95,4.82-2.07,6.76-.28,7.91,7.31,11.11,20.45,14.48,34.35,6.26,25.81,11.87,42.79,31.96,43.55,2.64.1,4.81,2.33,4.59,4.97-.1,2.63-2.32,4.69-4.96,4.59-28.8-1.1-35.5-28.69-40.88-50.85-3.03-12.46-5.88-24.23-11.67-29.58-1.03-.94-1.54-2.22-1.55-3.51Z"/>
    <path class="cls-3" d="M125.35,842.8c0-.6.11-1.19.35-1.78,5.32-13.26,15.73-18.53,25.8-23.64,4.12-2.08,8.37-4.23,12.27-6.94,16.49-11.41,24.01-27.82,23.53-51.28-.04-2.74,2.06-4.82,4.7-4.87,2.63-.05,4.81,2.05,4.87,4.69.52,26.74-8.55,46.11-27.64,59.31-4.44,3.09-8.99,5.4-13.39,7.63-9.28,4.7-17.29,8.75-21.26,18.66-.98,2.44-3.77,3.64-6.22,2.66-1.86-.75-2.99-2.54-3-4.43Z"/>
    <path class="cls-3" d="M516.64,466.8c0-.45.07-.93.2-1.39.76-2.54,3.43-3.97,5.95-3.21,21.33,6.38,42.74,22.39,61.64,36.51,4.16,3.11,8.24,6.17,12.22,9.03,6.05,4.37,12.44,8.77,18.97,13.24,25.49,17.5,54.38,37.34,71.32,62.67,7.21,10.79,15.38,31.78,24.84,56.11,20.05,51.58,47.52,122.19,82.68,136.18,9.16,3.65,18.27,3.22,27.84-1.32,2.38-1.13,5.23-.12,6.37,2.28,1.14,2.39.11,5.24-2.28,6.35-11.92,5.66-23.86,6.19-35.46,1.57-39.04-15.53-66.23-85.45-88.07-141.6-9.25-23.81-17.24-44.35-23.88-54.27-15.91-23.81-42.79-42.25-68.78-60.1-6.59-4.52-13.05-8.96-19.16-13.37-4.03-2.91-8.15-5.99-12.35-9.12-18.26-13.64-38.96-29.09-58.66-35.02-2.08-.61-3.41-2.51-3.41-4.56Z"/>
    <path class="cls-3" d="M722.9,678.46c0-.79.2-1.59.61-2.33,1.29-2.31,4.21-3.13,6.51-1.84,31.49,17.63,58.6,24.44,99.51,33.55,2.58.58,4.19,3.14,3.63,5.7-.58,2.58-3.14,4.21-5.71,3.64-34.53-7.7-67.13-14.97-102.11-34.54-1.56-.88-2.45-2.5-2.45-4.17Z"/>
    <path class="cls-3" d="M716.45,672.05c0-2.13,1.42-4.08,3.6-4.63,2.55-.66,5.16.89,5.82,3.44l.34,1.32c15.76,61.46,33.66,145.99,7.27,170.51-1.94,1.8-4.96,1.69-6.75-.25-1.79-1.93-1.68-4.96.25-6.75,16.77-15.58,13.4-69.81-10.03-161.14l-.33-1.31c-.1-.4-.15-.79-.15-1.18Z"/>
    <path class="cls-3" d="M565.99,494.53c0-2.19,1.51-4.17,3.74-4.68,2.57-.56,5.13,1.05,5.72,3.62,8.73,38.96,17.19,74.17,32.12,110.61,17.62,43.04,19.86,93.03,6.65,148.57-2.36,9.9-6.84,17.33-11.18,24.5-2.94,4.89-5.72,9.49-7.87,14.83-2.74,6.82-3.63,14.34-4.57,22.3-.52,4.3-1.04,8.76-1.89,13.07-6.05,30.61-9.04,57.3-4.1,88.13,7.67,47.62,14.92,92.6,50.9,128.46,1.87,1.85,1.88,4.88.01,6.75-1.86,1.87-4.89,1.89-6.75.01-38.18-38.04-46.02-86.68-53.59-133.7-5.19-32.23-2.09-59.88,4.15-91.5.77-3.95,1.26-8.02,1.77-12.33.98-8.24,1.98-16.75,5.21-24.75,2.43-6.05,5.54-11.2,8.55-16.18,4.14-6.87,8.05-13.35,10.06-21.78,12.74-53.56,10.66-101.58-6.19-142.75-15.2-37.14-23.76-72.75-32.61-112.14-.07-.34-.12-.69-.12-1.04Z"/>
    <path class="cls-3" d="M540.16,748.24c0-.57.1-1.13.3-1.68.93-2.47,3.66-3.72,6.13-2.82,7.65,1.7,40.22-31.47,52.49-43.97,5.71-5.83,10.23-10.43,13.26-13.13,1.96-1.77,4.98-1.61,6.75.36,1.76,1.96,1.61,4.98-.37,6.75-2.8,2.52-7.45,7.24-12.83,12.72-33.17,33.78-51.96,50.21-62.62,46.24-1.92-.72-3.11-2.54-3.11-4.47Z"/>
    <path class="cls-3" d="M586.41,957.41c0-1.36.58-2.73,1.71-3.67,2.02-1.69,5.04-1.44,6.73.59,13.52,16.08,57.11,52.99,73.25,51.7,2.63-.2,4.94,1.77,5.15,4.39.2,2.6-1.76,4.94-4.39,5.14-22.61,1.79-70.03-41.65-81.32-55.08-.75-.9-1.12-1.98-1.12-3.07Z"/>
    <path class="cls-3" d="M729.56,476.69c0-.08,0-.15,0-.23.12-2.54,2.3-4.49,4.88-4.38,19.31.88,44.37-9.86,66.5-19.33,6.75-2.9,13.12-5.63,19.01-7.89,4-1.52,8.19-3.08,12.5-4.67,14.71-5.41,29.94-11.02,41.67-17.74,13.7-7.85,22.8-19.22,32.43-31.28,8.66-10.82,17.6-22.02,30.05-30.15,2.15-1.39,5.05-.82,6.48,1.29,1.43,2.12.84,4.98-1.31,6.37-11.2,7.31-19.29,17.44-27.87,28.17-9.76,12.21-19.83,24.83-35.09,33.55-12.41,7.11-28.01,12.86-43.1,18.41-4.26,1.57-8.42,3.09-12.37,4.61-5.72,2.2-12.02,4.89-18.68,7.76-23.06,9.86-49.2,21.05-70.66,20.09-2.5-.12-4.45-2.14-4.46-4.58Z"/>
    <path class="cls-3" d="M842.38,440.3c0-.29.03-.58.08-.89.46-2.59,2.87-4.32,5.39-3.83,26.66,5.1,55.95,20.11,81.78,33.38,6.58,3.36,12.97,6.65,19.06,9.62,2.3,1.13,3.31,4,2.2,6.38-1.09,2.37-3.85,3.39-6.16,2.26-6.14-3-12.58-6.31-19.21-9.71-25.29-12.96-53.97-27.67-79.35-32.52-2.22-.43-3.78-2.43-3.78-4.68Z"/>
    <path class="cls-3" d="M1025.35,787.03c0-1,.31-2.01.97-2.88,1.59-2.11,4.58-2.53,6.69-.95,9.16,6.9,20.22,12.04,30.93,17,8.3,3.86,16.88,7.84,24.53,12.64,2.24,1.39,2.9,4.34,1.51,6.59-1.39,2.23-4.35,2.91-6.58,1.51-7.13-4.47-15.07-8.15-23.47-12.06-11.16-5.17-22.69-10.53-32.66-18.03-1.24-.94-1.9-2.37-1.91-3.82Z"/>
    <path class="cls-3" d="M954.25,635.04c0-1.91,1.14-3.72,3.02-4.46,64.77-25.7,106.25-64.3,130.52-121.47,9.26-21.79,18.46-44.38,27.37-66.23,10.76-26.42,21.9-53.75,33.34-80.18,4.07-9.4,7.35-19.15,10.53-28.6,5.56-16.46,11.28-33.48,21.31-48.94,6.75-10.4,14.09-20.61,21.19-30.48,3.27-4.54,6.52-9.07,9.75-13.65,14.66-20.84,34.52-39.85,59.01-56.5,2.2-1.48,5.16-.91,6.65,1.27,1.48,2.19.91,5.16-1.27,6.65-23.54,15.98-42.57,34.18-56.56,54.09-3.25,4.61-6.53,9.18-9.82,13.74-7.04,9.78-14.31,19.89-20.93,30.09-9.36,14.45-14.67,30.17-20.27,46.8-3.25,9.62-6.6,19.57-10.83,29.34-11.4,26.34-22.52,53.61-33.25,79.99-8.92,21.88-18.13,44.5-27.43,66.37-25.34,59.66-68.49,99.9-135.8,126.62-2.45.97-5.23-.23-6.2-2.69-.23-.58-.33-1.17-.34-1.75Z"/>
    <path class="cls-3" d="M1009.03,244.85c0-.58.11-1.18.32-1.74.96-2.46,3.72-3.69,6.19-2.73,68.78,26.66,109.03,143.52,106.43,212.27-.1,2.64-2.32,4.7-4.96,4.6-2.64-.09-4.74-2.32-4.6-4.95,2.36-65.81-35.41-177.85-100.34-203-1.89-.73-3.03-2.53-3.04-4.44Z"/>
    <path class="cls-3" d="M1123.05,424.6c0-.51.1-1.04.26-1.57,5.8-16.87,4.23-41.24,2.84-62.73-.61-9.18-1.17-17.85-1.18-25.72,0-2.64,2.13-4.78,4.77-4.79,2.64,0,4.79,2.13,4.8,4.77.02,7.57.57,16.09,1.15,25.11,1.46,22.41,3.1,47.79-3.32,66.47-.86,2.5-3.58,3.83-6.08,2.97-1.97-.7-3.22-2.55-3.23-4.52Z"/>
    <path class="cls-3" d="M1097.47,484.68c-.01-1.89,1.12-3.68,2.97-4.44,8.28-3.39,15.93-10.15,24.04-17.33,5.88-5.19,11.96-10.55,18.39-14.61,4.69-2.95,9.51-5.28,14.18-7.54,6.88-3.32,13.35-6.44,19.16-11.34,5.35-4.5,9.48-10.49,13.85-16.82,5.81-8.39,11.8-17.07,21.05-22.38,2.29-1.32,5.2-.53,6.52,1.77,1.31,2.28.53,5.21-1.76,6.52-7.36,4.24-12.51,11.67-17.94,19.53-4.54,6.57-9.23,13.35-15.56,18.69-6.72,5.68-14.06,9.21-21.17,12.65-4.63,2.23-9.01,4.35-13.24,7.02-5.77,3.63-11.3,8.52-17.14,13.67-8.36,7.39-16.98,15.01-26.76,19.02-2.44.99-5.23-.17-6.24-2.62-.24-.59-.36-1.2-.36-1.8Z"/>
    <path class="cls-3" d="M1095.62,507.25c0-2.57,1.64-4.81,3.94-5.19,7.96-1.31,15.72-4.88,23.94-8.64,6.2-2.84,12.61-5.79,19.26-7.76,14.53-4.32,29.4-6.42,43.78-8.44,7.34-1.06,14.93-2.13,22.3-3.47,33.42-6.11,68.65-4.75,110.9,4.28,2.51.53,4.15,3.25,3.69,6.12-.46,2.84-2.88,4.72-5.37,4.19-41.17-8.8-75.4-10.14-107.75-4.24-7.53,1.38-15.2,2.46-22.63,3.53-14.08,1.99-28.65,4.05-42.59,8.19-6.09,1.81-12.22,4.62-18.14,7.33-8.36,3.84-17,7.81-26.06,9.29-2.51.42-4.85-1.58-5.21-4.44-.03-.26-.04-.5-.04-.75Z"/>
    <path class="cls-3" d="M999.22,617.79c-.01-.69.15-1.39.46-2.06,1.13-2.38,3.99-3.39,6.38-2.25,9.86,4.7,27.72-1.72,40.78-6.43,2.48-.9,4.85-1.74,7.05-2.49,3.8-1.29,8.28-2.65,13.14-4.14,18.82-5.76,44.6-13.63,55.63-24.86,1.86-1.88,4.89-1.91,6.76-.06,1.91,1.85,1.91,4.87.07,6.76-12.72,12.96-38.75,20.92-59.66,27.3-4.77,1.45-9.15,2.81-12.88,4.07-2.15.71-4.46,1.55-6.88,2.42-15.45,5.55-34.67,12.47-48.14,6.05-1.71-.81-2.72-2.52-2.72-4.3Z"/>
    <path class="cls-3" d="M1249.63,477.16c0-2.44,1.77-4.55,4.21-4.85,27.68-3.41,43.47-43.42,51.05-62.66,2.58-6.5,5.26-13.01,7.98-19.56,6.52-15.74,13.24-32,18.14-48.1,2.59-8.53,4.21-17.42,5.93-26.85,2.1-11.47,4.27-23.35,8.36-34.71,15.77-43.7,76.92-186.35,201.76-187.4,2.64-.02,4.8,2.14,4.82,4.84.24,2.66-2.09,4.9-4.73,4.92-118.7.99-177.64,138.8-192.86,181-3.82,10.59-5.91,22.06-7.96,33.14-1.68,9.28-3.43,18.86-6.18,27.95-5.03,16.55-11.86,33.05-18.46,49.01-2.69,6.5-5.37,12.96-7.93,19.41-8.27,20.98-25.47,64.6-58.77,68.7-2.63.31-5-1.58-5.32-4.27-.02-.2-.04-.39-.04-.58Z"/>
    <path class="cls-3" d="M1330.73,338.08c-.01-5.38,2.01-10.18,6.02-14.31,17.1-17.59,69.2-18.06,91.44-18.25l4.1-.05c4.58-.05,9.12-.09,13.62-.12,50.39-.34,93.91-.66,130.27-39.43,1.8-1.93,4.83-2.02,6.76-.22,1.92,1.8,2.01,4.82.21,6.76-39.17,41.77-86.77,42.1-137.17,42.46-4.49.03-9,.06-13.55.11l-4.16.05c-19.24.17-70.34.62-84.66,15.37-2.28,2.35-3.35,4.9-3.32,7.82.04,2.68-2.04,4.82-4.68,4.87-2.64.06-4.83-2.04-4.88-4.68v-.37Z"/>
    <path class="cls-3" d="M1476.99,312.29c0-.51.07-1.01.24-1.52.85-2.5,3.54-3.87,6.05-3.03,9.49,3.16,19.82,8.61,29.8,13.9,13.22,7,26.88,14.23,37.98,15.74,2.62.36,4.45,2.76,4.09,5.39-.35,2.62-2.77,4.44-5.38,4.08-12.78-1.73-27.21-9.38-41.17-16.77-9.64-5.09-19.61-10.36-28.35-13.28-2-.65-3.27-2.52-3.28-4.51Z"/>
    <path class="cls-3" d="M989.85,697.12c0-.6.11-1.21.35-1.8,1-2.44,3.81-3.63,6.28-2.64,30.53,12.15,57.96,30.52,84.47,48.28,27.56,18.45,56.04,37.53,87.66,49.3,37.75,14.04,69.01,21.3,104.34,27.87,28.25,5.26,54.85,4.77,83,4.28,8.74-.15,17.6-.31,26.68-.3,45.52.05,88.79-11.5,130.63-22.67,42.02-11.21,85.45-22.82,131.69-22.98,25.8-.09,50.66,4.83,74.7,9.6,22.78,4.51,46.33,9.17,70.11,9.34,6.58.05,13.51.35,20.22.62,15.56.66,31.65,1.33,46.07-.74,14.56-2.09,25.83-9.7,37.75-17.75,6.03-4.07,12.26-8.27,19.11-11.9,2.35-1.24,5.27-.37,6.52,1.98,1.26,2.31.37,5.23-1.98,6.45-6.4,3.4-12.4,7.43-18.22,11.36-12.3,8.3-25.03,16.9-41.8,19.31-15.33,2.19-31.87,1.51-47.87.83-6.93-.29-13.49-.57-19.89-.61-24.69-.19-48.71-4.94-71.92-9.54-23.58-4.68-47.96-9.48-72.78-9.4-44.97.15-87.8,11.59-129.2,22.65-42.45,11.32-86.35,23.04-133.17,23-9.01-.01-17.82.14-26.5.3-28.65.48-55.72.97-84.94-4.47-35.83-6.66-67.56-14.04-105.95-28.31-32.7-12.16-61.67-31.57-89.68-50.34-26.1-17.47-53.09-35.56-82.66-47.32-1.87-.75-3.02-2.53-3.03-4.42Z"/>
    <path class="cls-3" d="M1145.36,784.6c0-1.78.98-3.46,2.67-4.31,2.37-1.16,5.24-.18,6.41,2.19,4.16,8.49,32.7,7.94,84.81-1.62,4.36-.81,7.94-1.45,10.41-1.84,21.03-3.19,41.9-7.53,62.1-12.91,8.97-2.38,18.28-6.87,27.28-11.22,10.7-5.17,20.81-10.04,30.86-11.97,2.6-.49,5.1,1.21,5.59,3.8.5,2.58-1.2,5.1-3.78,5.59-8.83,1.69-18.4,6.29-28.52,11.19-9.39,4.54-19.12,9.23-28.98,11.85-20.52,5.47-41.75,9.88-63.12,13.13-2.38.36-5.87,1-10.11,1.77-41.45,7.61-86.41,14.23-95.13-3.56-.34-.68-.49-1.4-.49-2.1Z"/>
    <path class="cls-3" d="M1200.7,807.28c0-1.65,1.14-3.25,3.16-4.09,2.92-1.21,6.56-.35,8.11,1.89,2.94,4.2,5.79,8.22,8.54,12.07,19.73,27.76,35.33,49.7,35.43,87.61v.13c.03,17.25-1.68,36.67-3.33,55.45-2.47,27.95-5.01,56.83-1.75,78.68.4,2.56-1.99,4.85-5.28,5.13-3.28.3-6.25-1.52-6.64-4.07-3.38-22.67-.8-51.99,1.7-80.35,1.65-18.62,3.35-37.86,3.31-54.81v-.12c-.1-35.55-14.29-55.53-33.96-83.18-2.76-3.88-5.65-7.9-8.59-12.15-.48-.7-.71-1.44-.71-2.18Z"/>
    <path class="cls-3" d="M1180.28,1041.7c0-.66.13-1.32.42-1.97,9.26-20.68,30.66-36.9,49.56-51.21,4.87-3.69,9.55-7.24,13.78-10.7,2.05-1.65,5.05-1.37,6.73.69,1.67,2.03,1.36,5.07-.69,6.71-4.31,3.52-9.09,7.15-14.05,10.91-17.97,13.62-38.35,29.06-46.61,47.51-1.08,2.42-3.91,3.49-6.32,2.42-1.77-.8-2.83-2.54-2.83-4.36Z"/>
    <path class="cls-3" d="M1456.17,815.48c0-1.36.58-2.69,1.63-3.61,4.37-3.84,8.48-2.4,10.93-1.54,1.1.38,2.17.75,3.42.87.99.1,1.86.47,2.57,1.05,73.11,10.09,140.93,45.63,179.32,94.57,4.55,5.79,8.92,12.11,13.14,18.21,7,10.14,14.24,20.61,22.46,28.9,9.64,9.71,22.09,17.96,34.13,25.95,5.66,3.75,11.51,7.64,16.93,11.59,19.72,14.34,33.25,20.2,53.66,23.16,6.8,1,15.94.96,25.64.93,16.92-.05,34.42-.12,44.51,5.25,2.34,1.25,3.23,4.13,1.98,6.47-1.24,2.33-4.13,3.22-6.46,1.97-7.96-4.24-24.98-4.18-39.99-4.13-10.05.03-19.54.06-27.05-1.03-24.91-3.62-39.57-11.53-57.91-24.89-5.25-3.82-10.77-7.48-16.59-11.35-12.43-8.24-25.3-16.78-35.61-27.18-8.83-8.88-16.32-19.72-23.57-30.19-4.13-5.99-8.41-12.18-12.78-17.76-39.14-49.89-110.42-85.32-186.02-92.49-1.9-.17-3.51-1.46-4.1-3.28-.16-.48-.24-.97-.24-1.46Z"/>
    <path class="cls-3" d="M1690.18,965.46c0-1.44.64-2.87,1.86-3.81,2.09-1.61,5.1-1.22,6.71.88,15.1,19.66,64.75,11.28,101,5.16,17.5-2.96,32.63-5.51,43.2-5.26,2.65.07,4.75,2.3,4.67,4.91-.07,2.64-2.26,4.72-4.89,4.66-9.67-.25-25.08,2.37-41.39,5.12-40.79,6.88-91.56,15.46-110.17-8.77-.66-.87-.98-1.88-.99-2.89Z"/>
    <path class="cls-3" d="M1491.02,1036.65c0-.69.15-1.38.46-2.04,1.12-2.39,3.95-3.42,6.35-2.31,32.09,14.94,92.21,4.79,121.35-20.48,12.65-10.97,36.37-56.32,33.87-82.9-.66-7.38-3.22-12.27-7.8-14.98-2.27-1.34-3.03-4.26-1.69-6.55,1.34-2.28,4.27-3.02,6.54-1.68,7.32,4.29,11.52,11.83,12.48,22.33,2.87,30.84-23.09,78.81-37.13,90.99-32.09,27.83-96.07,38.48-131.65,21.92-1.73-.81-2.76-2.52-2.77-4.31Z"/>
    <path class="cls-3" d="M1636.8,1044.87s0-.07,0-.11c.33-16.8,5.17-33.45,9.83-49.55,5.78-19.87,11.72-40.44,9.2-61.26-.28-2.63,1.56-5,4.17-5.32,2.62-.32,5.01,1.55,5.33,4.16,2.76,22.77-3.48,44.28-9.51,65.1-4.71,16.2-9.14,31.52-9.48,47.08-.06,2.63-2.23,4.73-4.87,4.67-2.61-.06-4.67-2.18-4.67-4.77Z"/>
    <path class="cls-3" d="M1603.34,786.37c0-.43.07-.88.19-1.32.72-2.53,3.35-4.02,5.9-3.3,44.19,12.5,74.2,35.57,97.29,74.82,1.35,2.27.57,5.2-1.71,6.54-2.27,1.35-5.2.58-6.53-1.7-21.75-36.96-50.02-58.69-91.66-70.45-2.1-.6-3.48-2.51-3.49-4.59Z"/>
    <path class="cls-3" d="M1741.78,797.59c0-.9.35-1.83,1.05-2.59,1.64-1.79,4.63-2.08,6.69-.64,6.17,4.31,13.09,8.38,19.79,12.34,8.48,4.98,17.23,10.13,24.66,15.87,9.99,7.7,17.23,17.19,24.24,26.37,6.11,8.03,11.89,15.59,19.14,21.63,1.9,1.59,1.96,4.21.14,5.87-1.82,1.64-4.82,1.71-6.71.13-8-6.69-14.35-15-20.49-23.03-6.67-8.75-13.56-17.77-22.62-24.76-6.97-5.38-15.08-10.16-23.67-15.22-6.86-4.03-13.96-8.22-20.43-12.75-1.18-.81-1.79-2.01-1.79-3.23Z"/>
    <path class="cls-3" d="M1076.34,602.6c0-.41.06-.82.16-1.25.68-2.55,3.3-4.07,5.85-3.39,79.75,21.18,170.15,45.2,244.39-8.48,15.64-11.32,29.95-24.68,43.79-37.6,16.64-15.54,33.85-31.61,53.83-44.67,48.16-31.53,102.7-2.32,130.92,17.9,14.07,10.08,27.63,20.83,40.74,31.22,25.87,20.5,50.29,39.86,79.01,55.17,28.03,14.95,87.6,21.62,125.41,8.16,16.68-5.93,27.72-15.09,32.8-27.21,1.02-2.44,3.81-3.58,6.25-2.56,2.43,1.03,3.58,3.82,2.57,6.25-6.17,14.72-19.1,25.66-38.41,32.54-41.26,14.68-103.28,7.17-133.11-8.74-29.47-15.72-55.39-36.25-80.44-56.11-13.03-10.33-26.49-21.01-40.37-30.95-26.24-18.8-76.73-46.09-120.13-17.68-19.29,12.62-36.18,28.41-52.53,43.66-14.05,13.12-28.59,26.71-44.72,38.36-77.9,56.33-170.62,31.7-252.43,9.97-2.15-.57-3.55-2.5-3.56-4.6Z"/>
    <path class="cls-3" d="M1477.07,497.74c0-.54.11-1.08.33-1.59,31.66-74.64,136.92-87.08,224.9-73.85,54.38,8.19,97.08,22.41,130.57,43.46,2.59,1.64,5.15,3.23,7.7,4.8,14.73,9.12,28.66,17.71,41.14,30.26,5.95,5.98,10.76,12.82,15.4,19.45,5.82,8.27,11.31,16.09,18.56,21.79,1.99,1.57,2.23,4.32.51,6.15-1.72,1.83-4.72,2.04-6.71.47-8.31-6.53-14.44-15.27-20.38-23.7-4.43-6.32-9.01-12.86-14.44-18.29-11.71-11.77-25.17-20.09-39.41-28.89-2.57-1.59-5.17-3.2-7.77-4.83-32.3-20.33-73.75-34.09-126.72-42.05-81.15-12.22-177.44-2.18-210.88,60.88.97.5,1.76,1.33,2.15,2.4.83,2.27-.51,4.76-3.01,5.52-.19.06-.38.18-.84.47-1.2.81-3.22,2.15-6.71,1.88-1.5-.1-2.85-.85-3.65-2.03-.47-.7-.72-1.5-.72-2.3Z"/>
    <path class="cls-3" d="M1797.05,459.68c-.01-.4.04-.79.14-1.19.66-2.57,3.25-4.12,5.8-3.47,2.93.74,7.74.26,11.61-.15.19-.02.38-.04.56-.06,13.93-37.08,54.58-63.7,95.97-62.35,2.63.07,4.68,2.11,4.62,4.93-.08,2.64-2.29,4.71-4.94,4.62-38.41-1.24-76.09,24.02-87.62,58.78-.62,1.84-2.27,3.13-4.2,3.26-1.05.07-2.21.2-3.42.33-4.85.5-10.36,1.07-14.93-.11-2.17-.53-3.6-2.48-3.6-4.61Z"/>
    <path class="cls-3" d="M1566.97,541.4c0-1.26.5-2.52,1.49-3.47,1.91-1.82,4.94-1.75,6.76.16,7.56,7.96,12.69,29.32,18.62,54.07,4.17,17.37,12.84,53.56,18.99,53.65,2.61.05,4.69,2.18,4.7,4.77v.09c-.05,2.64-2.22,4.75-4.85,4.71-12.92-.21-19.11-23.32-28.14-60.99-4.9-20.44-10.46-43.61-16.25-49.7-.87-.91-1.31-2.1-1.32-3.28Z"/>
    <path class="cls-3" d="M1348.45,574.09c0-.19.01-.37.03-.57.3-2.63,2.67-4.49,5.29-4.2,8.82,1.02,17.77.83,27.23.61,18.19-.4,36.99-.81,54.66,8.07,29.69,14.97,74.67,52.92,76.9,96.17.12,2.6-1.88,4.88-4.53,5.01-2.63.13-4.88-1.9-5.01-4.54-1.78-34.67-38.26-71.28-71.66-88.1-15.54-7.82-32.34-7.46-50.12-7.06-9.39.21-19.08.42-28.55-.67-2.43-.28-4.22-2.34-4.23-4.73Z"/>
    <path class="cls-3" d="M1676.01,424.8c-.01-1.56.73-3.1,2.13-4.03.13-.09.27-.18.4-.27.27-2.25,2.03-4.27,4.3-4.48,29.16-2.7,61.22-31.82,79.8-55.92,6.13-7.97,12.02-16.54,17.69-24.82,12.76-18.59,25.94-37.82,43.75-52.83,5.83-4.91,57.93-47.46,91.93-31.24,2.38,1.14,3.41,4.01,2.28,6.43-1.12,2.41-3.97,3.43-6.36,2.29-23.29-11.13-63.64,14.72-81.73,29.93-16.8,14.16-29.61,32.83-41.99,50.91-5.77,8.37-11.71,17.06-18.03,25.24-19.03,24.68-51.74,54.33-82.89,59.17-.92,1.83-2.41,2.72-3.32,3.26l-.55.36c-2.2,1.46-5.16.87-6.63-1.36-.54-.82-.8-1.74-.79-2.65Z"/>
    <path class="cls-3" d="M1840.65,272.83c0-.57.1-1.15.31-1.71,6.73-17.78,12.12-36.69,17.34-54.98,2.65-9.28,5.29-18.59,8.14-27.82,5.53-18.01,11.23-36.64,12.5-57.18.42-6.67.31-14.01.18-21.78-.32-18.86-.64-38.39,6.49-53.05,1.16-2.37,4.02-3.36,6.39-2.2,2.38,1.15,3.36,4.01,2.22,6.38-6.13,12.62-5.85,30.95-5.55,48.72.14,7.95.25,15.48-.18,22.53-1.34,21.67-7.22,40.85-12.91,59.4-2.82,9.18-5.46,18.43-8.1,27.65-5.26,18.47-10.71,37.59-17.58,55.74-.93,2.47-3.69,3.71-6.15,2.78-1.92-.73-3.09-2.54-3.1-4.46Z"/>
    <path class="cls-3" d="M1648.12,423.31c0-1.27.51-2.53,1.51-3.48,14.73-13.9,21.63-25.91,31.18-42.52,1.48-2.57,3.01-5.25,4.66-8.04,2.47-4.25,4.88-7.8,7.22-11.25,4.68-6.91,8.74-12.9,12.17-22.7,4.89-13.94,7.12-27.95,9.47-42.78,1.71-10.87,3.49-22.1,6.42-33.47.66-2.57,3.27-4.1,5.83-3.45,2.55.67,4.08,3.27,3.42,5.83-2.81,10.94-4.54,21.94-6.24,32.58-2.31,14.6-4.7,29.7-9.88,44.46-3.85,10.97-8.43,17.73-13.29,24.9-2.23,3.31-4.56,6.73-6.87,10.71-1.63,2.77-3.15,5.42-4.61,7.98-9.97,17.32-17.16,29.83-32.91,44.71-1.92,1.81-4.94,1.72-6.75-.21-.87-.91-1.32-2.08-1.32-3.27Z"/>
    <path class="cls-3" d="M1458.8,123.74c0-2.57,2.04-4.7,4.62-4.79,2.65-.07,4.86,2,4.93,4.63.89,27.73,30.32,49.99,59.07,59.76,2.5.85,3.84,3.56,3,6.08-.86,2.5-3.57,3.83-6.07,2.99-29.55-10.04-64.44-34-65.55-68.51v-.15Z"/>
    <path class="cls-3" d="M1670.03,618.3c0-1.42.62-2.82,1.8-3.76,2.07-1.63,5.09-1.31,6.72.77l.51.62c13.52,17,54.66,68.71,77.11,55.87,2.3-1.31,5.21-.51,6.52,1.77,1.33,2.31.52,5.23-1.78,6.52-29.57,16.91-71.45-35.73-89.33-58.21l-.5-.62c-.7-.89-1.04-1.93-1.04-2.96Z"/>
    <path class="cls-3" d="M933.37,855.85c0-1.64.84-3.25,2.37-4.14,29.94-17.48,32.67-80.82,33.84-107.87,1.19-27.67,2.99-69.47-12.38-93.35-1.43-2.23-.8-5.19,1.43-6.61,2.23-1.43,5.18-.79,6.61,1.44,17.03,26.42,15.13,70.08,13.89,98.94-1.24,28.61-4.13,95.59-38.57,115.72-2.28,1.33-5.21.55-6.54-1.72-.44-.74-.65-1.58-.65-2.39Z"/>
    <path class="cls-3" d="M7.43,271.32c0-1.46.52-2.91,1.57-3.98,38.12-38.93,90.07-18.61,131.81-2.26l1.73.67c21.22,8.29,46.13,10.14,70.12,5.19,17.18-3.54,51.62-20.06,54.11-35.32.48-2.95,3.07-4.92,5.79-4.4,2.71.53,4.53,3.31,4.04,6.29-3.76,23.05-45.36,40.65-62.08,44.1-25.71,5.3-52.46,3.29-75.33-5.64l-1.74-.69c-41.22-16.12-87.95-34.41-121.62-.02-2,2.05-5.16,1.94-7.05-.25-.89-1.04-1.35-2.37-1.35-3.7Z"/>
    <path class="cls-3" d="M149.64,276.05c0-1.38.59-2.77,1.74-3.71,2.04-1.68,5.04-1.4,6.73.65,9.98,12.08,67.43,46.83,81.62,45.23,2.62-.29,4.99,1.59,5.29,4.21.28,2.65-1.6,4.99-4.22,5.29-19.73,2.23-80.07-36.55-90.07-48.65-.73-.89-1.09-1.96-1.09-3.02Z"/>
    <path class="cls-3" d="M130.26,258.86c0-1.55.74-3.08,2.14-4,46.5-30.92,73.83-69.56,81.21-114.87.42-2.6,2.87-4.37,5.49-3.95,2.6.43,4.41,2.89,3.95,5.49-7.82,48.02-36.54,88.84-85.35,121.29-2.2,1.46-5.16.86-6.63-1.34-.53-.81-.79-1.73-.79-2.63Z"/>
    <path class="cls-3" d="M9.69,515.19c0-2.63,1.93-4.76,4.34-4.8,54.32-.53,119.86-35.27,159.37-84.49,1.59-1.98,4.36-2.19,6.17-.45,1.83,1.75,2.01,4.77.41,6.76-41.03,51.1-109.24,87.2-165.87,87.75-2.41.02-4.38-2.1-4.41-4.74v-.03Z"/>
    <path class="cls-3" d="M5.43,522.31c0-1.47.61-2.92,1.76-3.84,1.9-1.49,4.51-1,5.86,1.12,5.21,8.15,11.08,16.33,16.76,24.23,7.99,11.11,16.26,22.62,23.13,34.69,2.89,5.07,6.38,10.52,10.06,16.3,11.18,17.46,23.85,37.26,26.39,56.79.34,2.57-1.26,4.94-3.56,5.32-2.3.36-4.42-1.42-4.76-3.98-2.25-17.28-14.29-36.09-24.91-52.69-3.76-5.88-7.31-11.42-10.33-16.72-6.62-11.63-14.73-22.92-22.59-33.85-5.75-8.01-11.7-16.28-17.05-24.67-.53-.82-.77-1.76-.78-2.69Z"/>
    <path class="cls-3" d="M0,408.05c0-2.58,2.04-4.71,4.64-4.78,23.29-.67,69.06-18.48,79.37-38.36,1.22-2.34,4.1-3.24,6.44-2.03,2.35,1.21,3.27,4.1,2.04,6.45-12.32,23.75-61.62,42.76-87.57,43.49-2.64.07-4.85-1.99-4.92-4.64,0-.04,0-.09,0-.13Z"/>
    <g>
      <path class="cls-2" d="M1548.19,112.95s28.77,46.52,67.01,46.43c0,0,3.56-7.17-7.23-22.68,0,0,8.39,7.15,23.9,3.51,0,0,2.36-10.74-10.79-19.08,0,0,20.28-8.42,25.05-14.4,0,0-11.99-16.7-25.12-14.27,0,0,3.55-11.95,7.1-28.69,0,0-13.17-10.72-29.88-4.71,0,0,13.1-16.76,15.47-26.33,0,0-25.11-5.9-33.46.09,0,0-.03-10.75-.04-15.53,0,0-21.48,8.41-25.04,19.18,0,0-4.8-11.95-8.4-14.33,0,0-14.24,38.27,1.43,90.8Z"/>
      <path class="cls-2" d="M1628.11,63.77s-38.22,2.48-50.13,22.82l20.25-27.53s9.54-7.19,29.88,4.71Z"/>
      <path class="cls-2" d="M1595.77,30.4s-25.05,15.59-33.38,29.95c-8.33,14.36-7.23-23.87-7.23-23.87l25.04-19.18.04,15.53,15.53-2.43Z"/>
    </g>
    <g>
      <path class="cls-2" d="M1833.24,605.27s16.03,25.91,37.32,25.85c0,0,1.98-4-4.03-12.63,0,0,4.67,3.98,13.31,1.95,0,0,1.32-5.98-6.01-10.63,0,0,11.3-4.68,13.94-8.01,0,0-6.66-9.3-13.98-7.95,0,0,1.98-6.67,3.95-15.98,0,0-7.33-5.97-16.64-2.61,0,0,7.29-9.34,8.6-14.67,0,0-13.97-3.29-18.62.04,0,0-.02-5.99-.03-8.64,0,0-11.95,4.68-13.94,10.68,0,0-2.67-6.65-4.69-7.97,0,0-7.91,21.31.81,50.56Z"/>
      <path class="cls-2" d="M1877.75,577.87s-21.28,1.39-27.91,12.71l11.28-15.32s5.31-4.01,16.64,2.61Z"/>
      <path class="cls-2" d="M1859.74,559.29s-13.95,8.69-18.59,16.68c-4.63,7.99-4.03-13.3-4.03-13.3l13.94-10.68.03,8.64,8.65-1.35Z"/>
    </g>
    <g>
      <path class="cls-3" d="M1507.61,190.96s-20.56,35.06-7.24,60.14c0,0,5.95-.14,12.39-12.61,0,0-1.79,7.99,5.97,16.92,0,0,7.89-2.18,8.8-13.71,0,0,12.56,10.41,18.15,11.47,0,0,6.81-13.67.66-21.46,0,0,9.08-1.81,21.31-5.29,0,0,2.48-12.37-7.27-21.27,0,0,15.55,2.8,22.65,1.01,0,0-4.82-18.53-11.66-21.94,0,0,7.05-3.74,10.19-5.4,0,0-12.98-11.19-21.29-9.81,0,0,6.18-7.3,6.49-10.48,0,0-30.07,3.91-59.16,32.43Z"/>
      <path class="cls-2" d="M1567.66,226.41s-14.9-24.26-32.38-25.02l25.11,3.75s8.03,3.77,7.27,21.27Z"/>
      <path class="cls-2" d="M1578.36,193.59s-18.93-11.06-31.25-11.54c-12.32-.48,13.17-13.04,13.17-13.04l21.29,9.81-10.19,5.4,6.98,9.37Z"/>
    </g>
    <g>
      <path class="cls-3" d="M1129.45,582.93s24.68,17.95,44.43,9.83c0,0,.32-4.45-8.52-10.18,0,0,5.82,1.91,13.09-3.24,0,0-1.05-6.05-9.61-7.57,0,0,8.71-8.63,9.91-12.73,0,0-9.72-6.1-15.99-2.07,0,0-.69-6.93-2.39-16.33,0,0-9.08-2.76-16.42,3.88,0,0,3.24-11.42,2.42-16.86,0,0-14.21,2.24-17.26,7.11,0,0-2.29-5.56-3.3-8.02,0,0-9.33,8.88-8.9,15.2,0,0-5-5.15-7.35-5.62,0,0,.72,22.77,19.9,46.61Z"/>
      <path class="cls-2" d="M1160.35,540.64s-19.22,9.35-21.07,22.37l4.65-18.49s3.41-5.72,16.42-3.88Z"/>
      <path class="cls-2" d="M1136.6,530.24s-9.65,13.34-10.91,22.52c-1.29,9.18-8.8-10.81-8.8-10.81l8.9-15.2,3.3,8.02,7.51-4.54Z"/>
    </g>
    <g>
      <path class="cls-3" d="M1275.1,196.96s24.69,17.95,44.44,9.83c0,0,.33-4.46-8.52-10.2,0,0,5.83,1.93,13.09-3.22,0,0-1.05-6.05-9.61-7.58,0,0,8.7-8.62,9.91-12.72,0,0-9.73-6.09-16-2.08,0,0-.69-6.92-2.38-16.31,0,0-9.07-2.76-16.43,3.88,0,0,3.23-11.43,2.43-16.87,0,0-14.21,2.25-17.26,7.1,0,0-2.28-5.55-3.29-8.01,0,0-9.32,8.89-8.9,15.2,0,0-5-5.16-7.36-5.63,0,0,.73,22.78,19.9,46.61Z"/>
      <path class="cls-2" d="M1306.02,154.68s-19.23,9.35-21.09,22.37l4.66-18.49s3.4-5.73,16.43-3.88Z"/>
      <path class="cls-2" d="M1282.27,144.25s-9.66,13.35-10.92,22.53c-1.27,9.18-8.78-10.8-8.78-10.8l8.9-15.2,3.29,8.01,7.51-4.54Z"/>
    </g>
    <g>
      <path class="cls-3" d="M828.59,712.74s24.69,17.94,44.43,9.84c0,0,.33-4.46-8.52-10.2,0,0,5.83,1.92,13.09-3.23,0,0-1.05-6.05-9.61-7.57,0,0,8.71-8.64,9.9-12.73,0,0-9.71-6.1-15.98-2.07,0,0-.69-6.93-2.39-16.31,0,0-9.07-2.77-16.42,3.87,0,0,3.22-11.41,2.42-16.86,0,0-14.21,2.25-17.26,7.1,0,0-2.29-5.54-3.3-8.01,0,0-9.33,8.88-8.89,15.2,0,0-5.01-5.15-7.36-5.62,0,0,.72,22.77,19.9,46.61Z"/>
      <path class="cls-2" d="M859.51,670.46s-19.23,9.35-21.08,22.38l4.65-18.51s3.4-5.71,16.42-3.87Z"/>
      <path class="cls-2" d="M835.76,660.04s-9.66,13.35-10.92,22.51c-1.27,9.18-8.78-10.8-8.78-10.8l8.89-15.2,3.3,8.01,7.51-4.53Z"/>
    </g>
    <g>
      <path class="cls-3" d="M188.15,766.88s24.68,17.96,44.43,9.83c0,0,.32-4.47-8.53-10.18,0,0,5.83,1.91,13.09-3.24,0,0-1.05-6.05-9.61-7.57,0,0,8.71-8.63,9.91-12.74,0,0-9.72-6.11-15.99-2.07,0,0-.69-6.93-2.4-16.32,0,0-9.07-2.76-16.43,3.87,0,0,3.24-11.42,2.42-16.86,0,0-14.21,2.24-17.27,7.11,0,0-2.28-5.55-3.29-8.02,0,0-9.32,8.9-8.89,15.2,0,0-5.01-5.15-7.36-5.62,0,0,.71,22.77,19.9,46.61Z"/>
      <path class="cls-2" d="M219.06,724.6s-19.22,9.35-21.07,22.37l4.65-18.5s3.41-5.73,16.43-3.87Z"/>
      <path class="cls-2" d="M195.31,714.18s-9.66,13.35-10.93,22.53c-1.28,9.18-8.77-10.81-8.77-10.81l8.89-15.2,3.29,8.02,7.52-4.54Z"/>
    </g>
    <g>
      <path class="cls-3" d="M687.8,314.66s-29.41,27.98-23.54,55.74c0,0,5.76,1.51,15.37-8.68,0,0-3.91,7.16,1.08,17.89,0,0,8.17.09,12.23-10.74,0,0,9.2,13.47,14.27,16.02,0,0,10.32-11.25,6.55-20.41,0,0,9.23.75,21.93.79,0,0,5.8-11.2-1.12-22.42,0,0,14.17,6.98,21.48,7.23,0,0,.47-19.14-5.15-24.3,0,0,7.81-1.65,11.28-2.37,0,0-9.38-14.34-17.74-15.3,0,0,7.94-5.3,9.13-8.27,0,0-29.96-4.54-65.77,14.82Z"/>
      <path class="cls-2" d="M735.68,365.26s-7.6-27.4-24.2-32.94l23.08,10.53s6.67,5.83,1.12,22.42Z"/>
      <path class="cls-2" d="M755.01,336.69s-15.13-15.83-26.83-19.69c-11.7-3.88,16.25-8.89,16.25-8.89l17.74,15.3-11.28,2.37,4.12,10.92Z"/>
    </g>
    <g>
      <path class="cls-3" d="M474.37,1003.91s5.06,23.94,21.17,29.73c0,0,2.58-2.48.4-10.65,0,0,2.45,4.27,9.53,5.11,0,0,2.63-4.17-1.64-9.67,0,0,9.82-.47,12.73-2.25,0,0-2.51-8.85-8.4-9.83,0,0,3.3-4.5,7.35-10.99,0,0-3.92-6.52-11.86-6.53,0,0,8.06-5.07,10.51-8.73,0,0-9.68-6.3-14.1-5.06,0,0,1.62-4.53,2.35-6.54,0,0-10.32.28-13.46,4.26,0,0-.2-5.75-1.35-7.3,0,0-11.81,13.93-13.22,38.44Z"/>
      <path class="cls-2" d="M515.52,995.36s-16.47-4.77-24.56,1.99l12.7-8.52s5.11-1.57,11.86,6.53Z"/>
      <path class="cls-2" d="M506.97,976.38s-12.91,2.75-18.6,7.54c-5.69,4.78.58-11.15.58-11.15l13.46-4.26-2.35,6.54,6.91,1.34Z"/>
    </g>
    <g>
      <path class="cls-3" d="M665.61,1009.81s5.06,23.96,21.17,29.73c0,0,2.59-2.47.4-10.64,0,0,2.44,4.28,9.53,5.12,0,0,2.63-4.18-1.65-9.67,0,0,9.83-.46,12.74-2.24,0,0-2.51-8.88-8.4-9.84,0,0,3.31-4.49,7.35-11,0,0-3.92-6.52-11.87-6.53,0,0,8.06-5.06,10.52-8.73,0,0-9.68-6.29-14.1-5.05,0,0,1.62-4.52,2.35-6.53,0,0-10.33.27-13.46,4.27,0,0-.21-5.76-1.36-7.31,0,0-11.81,13.94-13.21,38.44Z"/>
      <path class="cls-2" d="M706.75,1001.26s-16.47-4.76-24.57,1.98l12.7-8.51s5.12-1.57,11.87,6.53Z"/>
      <path class="cls-2" d="M698.2,982.3s-12.92,2.74-18.6,7.51c-5.7,4.79.58-11.13.58-11.13l13.46-4.27-2.35,6.53,6.91,1.35Z"/>
    </g>
    <g>
      <path class="cls-3" d="M181.74,446.06s27.96,24.34,52.72,16.63c0,0,.87-5.37-9.23-13.25,0,0,6.86,2.95,16.18-2.5,0,0-.62-7.44-10.81-10.2,0,0,11.45-9.53,13.33-14.34,0,0-11.12-8.41-19.12-4.22,0,0-.1-8.45-1.16-20,0,0-10.68-4.3-20.3,2.94,0,0,5.13-13.47,4.74-20.15,0,0-17.44,1.21-21.64,6.76,0,0-2.18-6.95-3.14-10.04,0,0-12.23,9.76-12.38,17.44,0,0-5.51-6.77-8.3-7.59,0,0-1.56,27.63,19.12,58.54Z"/>
      <path class="cls-2" d="M223.65,398.18s-24.26,9.26-27.88,24.83l7.58-21.89s4.74-6.57,20.3-2.94Z"/>
      <path class="cls-2" d="M196.01,383.04s-13.1,15.12-15.61,26.09c-2.52,10.98-9.48-14.01-9.48-14.01l12.38-17.44,3.14,10.04,9.57-4.68Z"/>
    </g>
    <g>
      <path class="cls-2" d="M1687.52,852.24s-14.77,25.19-5.2,43.2c0,0,4.27-.11,8.9-9.06,0,0-1.28,5.74,4.29,12.15,0,0,5.66-1.58,6.32-9.85,0,0,9.03,7.48,13.03,8.24,0,0,4.9-9.82.48-15.42,0,0,6.52-1.3,15.3-3.8,0,0,1.78-8.89-5.2-15.27,0,0,11.16,2.01,16.26.74,0,0-3.47-13.32-8.37-15.76,0,0,5.08-2.7,7.32-3.88,0,0-9.33-8.04-15.3-7.05,0,0,4.43-5.23,4.67-7.52,0,0-21.61,2.81-42.5,23.28Z"/>
      <path class="cls-2" d="M1730.64,877.71s-10.69-17.44-23.26-17.97l18.05,2.7s5.76,2.7,5.2,15.27Z"/>
      <path class="cls-2" d="M1738.34,854.13s-13.6-7.93-22.45-8.28c-8.85-.36,9.46-9.38,9.46-9.38l15.3,7.05-7.32,3.88,5.02,6.72Z"/>
    </g>
    <g>
      <path class="cls-3" d="M1362.53,751.05s50.42-13.5,60.86-48.48c0,0-5.57-5.25-22.71.36,0,0,8.83-5.68,9.8-20.87,0,0-9.19-5.11-20.42,4.62,0,0-2.1-20.85-6.25-26.85,0,0-18.56,6.36-19.97,19.04,0,0-9.94-6.55-24.25-14.38,0,0-13.42,9.08-12.54,26.01,0,0-11.7-16.59-19.8-21.38,0,0-12.3,21.32-9.14,30.6,0,0-9.82-2.95-14.19-4.24,0,0,1.78,21.96,10.62,28.17,0,0-12.22,1.1-15.39,3.73,0,0,31.06,23.55,83.37,23.68Z"/>
      <path class="cls-2" d="M1339.59,664.49s-8.25,35.61,7.05,52.07l-19.59-26.06s-3.94-10.71,12.54-26.01Z"/>
      <path class="cls-2" d="M1300.19,684.85s7.35,27.19,18.19,38.75c10.83,11.56-23.82.05-23.82.05l-10.62-28.17,14.19,4.24,2.07-14.87Z"/>
    </g>
    <g>
      <path class="cls-3" d="M1726.46,273.04s28.82,22.11,52.53,13.05c0,0,.53-5.3-9.83-12.38,0,0,6.9,2.46,15.67-3.45,0,0-1.07-7.22-11.18-9.29,0,0,10.61-10,12.17-14.84,0,0-11.39-7.54-18.97-2.95,0,0-.59-8.25-2.35-19.47,0,0-10.7-3.56-19.65,4.1,0,0,4.19-13.48,3.4-19.97,0,0-16.98,2.25-20.74,7.92,0,0-2.55-6.66-3.69-9.64,0,0-11.36,10.3-11.03,17.81,0,0-5.8-6.28-8.59-6.91,0,0,.18,27.11,22.27,56.03Z"/>
      <path class="cls-2" d="M1764.49,223.69s-23.15,10.54-25.74,25.96l6.09-21.86s4.22-6.7,19.65-4.1Z"/>
      <path class="cls-2" d="M1736.56,210.59s-11.88,15.58-13.67,26.45c-1.78,10.87-10.11-13.12-10.11-13.12l11.03-17.81,3.69,9.64,9.06-5.16Z"/>
    </g>
    <g>
      <path class="cls-3" d="M1896.27,60.92s14.03-37.72-3.29-59.89c0,0-5.78,1.16-9.91,14.44,0,0,.38-8.1-8.74-15.47,0,0-7.31,3.48-6.21,14.89,0,0-14.05-7.98-19.68-8.05,0,0-4.28,14.5,3.04,21.04,0,0-8.54,3.32-19.86,8.82,0,0-.27,12.5,10.75,19.48,0,0-15.65-.05-22.27,2.89,0,0,7.92,17.25,15.15,19.39,0,0-6.23,4.87-9.01,7.03,0,0,14.6,8.68,22.44,5.89,0,0-4.75,8.17-4.53,11.35,0,0,28.65-9.01,52.09-41.81Z"/>
      <path class="cls-2" d="M1831.64,36.7s18.7,21.08,35.88,18.81l-25.13.68s-8.48-2.29-10.75-19.48Z"/>
      <path class="cls-2" d="M1826.85,70.55s20.38,7.51,32.46,5.87c12.11-1.65-10.59,14.97-10.59,14.97l-22.44-5.89,9.01-7.03-8.42-7.92Z"/>
    </g>
    <g>
      <path class="cls-2" d="M934.86,488.02s-12.11,42.77,8.91,65.64c0,0,6.24-1.79,9.63-16.76,0,0,.32,8.94,10.99,16.27,0,0,7.75-4.49,5.52-16.95,0,0,16.17,7.56,22.37,7.14,0,0,3.45-16.35-5.21-22.89,0,0,9.12-4.43,21.11-11.49,0,0-.79-13.76-13.56-20.5,0,0,17.24-1.33,24.27-5.15,0,0-10.21-18.3-18.38-20.01,0,0,6.43-5.92,9.29-8.54,0,0-16.83-8.27-25.24-4.51,0,0,4.54-9.43,3.99-12.89,0,0-30.76,12.44-53.68,50.64Z"/>
      <path class="cls-2" d="M1008.18,508.98s-22.44-21.55-41.17-17.54l27.61-2.96s9.55,1.78,13.56,20.5Z"/>
      <path class="cls-2" d="M1010.46,471.29s-23.09-6.47-36.27-3.6c-13.17,2.89,10.35-17.42,10.35-17.42l25.24,4.51-9.29,8.54,9.96,7.97Z"/>
    </g>
    <g>
      <path class="cls-2" d="M815.4,778.6s-12.84,45.34,9.44,69.59c0,0,6.62-1.9,10.22-17.78,0,0,.32,9.48,11.65,17.25,0,0,8.21-4.75,5.86-17.95,0,0,17.15,8,23.71,7.56,0,0,3.65-17.33-5.52-24.28,0,0,9.66-4.69,22.37-12.16,0,0-.83-14.61-14.37-21.72,0,0,18.27-1.42,25.72-5.46,0,0-10.82-19.4-19.49-21.23,0,0,6.82-6.26,9.85-9.05,0,0-17.84-8.77-26.75-4.78,0,0,4.8-10.01,4.23-13.68,0,0-32.62,13.2-56.91,53.69Z"/>
      <path class="cls-2" d="M893.14,800.82s-23.8-22.86-43.65-18.59l29.27-3.13s10.12,1.87,14.37,21.72Z"/>
      <path class="cls-2" d="M895.56,760.86s-24.48-6.85-38.45-3.8c-13.96,3.04,10.98-18.48,10.98-18.48l26.75,4.78-9.85,9.05,10.57,8.45Z"/>
    </g>
    <g>
      <path class="cls-2" d="M565.6,180.38s21.11,16.29,38.54,9.7c0,0,.4-3.88-7.19-9.12,0,0,5.05,1.83,11.51-2.49,0,0-.76-5.31-8.19-6.85,0,0,7.82-7.33,8.96-10.87,0,0-8.33-5.56-13.91-2.21,0,0-.43-6.06-1.68-14.31,0,0-7.84-2.64-14.45,2.98,0,0,3.11-9.91,2.55-14.67,0,0-12.46,1.6-15.25,5.77,0,0-1.85-4.91-2.68-7.09,0,0-8.36,7.53-8.14,13.04,0,0-4.24-4.62-6.28-5.08,0,0,.06,19.9,16.22,41.19Z"/>
      <path class="cls-2" d="M593.63,144.23s-17.02,7.7-18.96,19.01l4.51-16.03s3.13-4.93,14.45-2.98Z"/>
      <path class="cls-2" d="M573.15,134.55s-8.75,11.41-10.09,19.39c-1.35,7.99-7.4-9.66-7.4-9.66l8.14-13.04,2.68,7.09,6.67-3.78Z"/>
    </g>
    <g>
      <path class="cls-2" d="M1216.26,401.89s21.12,16.28,38.56,9.69c0,0,.39-3.89-7.19-9.12,0,0,5.05,1.83,11.51-2.49,0,0-.77-5.31-8.21-6.86,0,0,7.82-7.33,8.98-10.87,0,0-8.35-5.56-13.92-2.2,0,0-.45-6.06-1.68-14.31,0,0-7.85-2.64-14.45,2.97,0,0,3.11-9.9,2.55-14.67,0,0-12.48,1.61-15.26,5.78,0,0-1.85-4.9-2.68-7.09,0,0-8.36,7.54-8.14,13.05,0,0-4.24-4.63-6.3-5.09,0,0,.07,19.9,16.23,41.19Z"/>
      <path class="cls-2" d="M1244.31,365.74s-17.02,7.68-18.96,19.01l4.51-16.04s3.13-4.92,14.45-2.97Z"/>
      <path class="cls-2" d="M1223.83,356.06s-8.76,11.41-10.1,19.4c-1.34,7.97-7.4-9.67-7.4-9.67l8.14-13.05,2.68,7.09,6.68-3.76Z"/>
    </g>
    <g>
      <path class="cls-2" d="M280.99,249.79s24.33,11.77,40.25,1.61c0,0-.41-3.93-9.02-7.54,0,0,5.38.76,10.9-4.87,0,0-1.87-5.11-9.57-5.1,0,0,6.25-8.88,6.65-12.64,0,0-9.43-3.78-14.27.71,0,0-1.68-5.94-4.64-13.85,0,0-8.32-.98-13.71,5.96,0,0,1.03-10.48-.51-15.09,0,0-12.05,4.18-13.93,8.9,0,0-2.88-4.47-4.13-6.47,0,0-6.74,9.2-5.37,14.63,0,0-5.17-3.71-7.3-3.75,0,0,4.2,19.73,24.65,37.5Z"/>
      <path class="cls-2" d="M301.29,208.1s-15.28,11.16-14.85,22.79l1.15-16.83s2.07-5.55,13.71-5.96Z"/>
      <path class="cls-2" d="M278.97,202.74s-6.32,13.15-5.99,21.34c.33,8.19-9.34-8.05-9.34-8.05l5.37-14.63,4.13,6.47,5.83-5.13Z"/>
    </g>
    <g>
      <path class="cls-2" d="M77.67,654.97s-12.03,24.19-2.04,40.24c0,0,3.93-.38,7.64-8.95,0,0-.82,5.38,4.75,10.96,0,0,5.13-1.82,5.2-9.51,0,0,8.82,6.33,12.57,6.77,0,0,3.88-9.38-.56-14.27,0,0,5.95-1.62,13.9-4.49,0,0,1.08-8.33-5.81-13.77,0,0,10.46,1.14,15.08-.36,0,0-4.06-12.1-8.74-14.03,0,0,4.5-2.82,6.5-4.07,0,0-9.14-6.82-14.57-5.52,0,0,3.75-5.13,3.83-7.26,0,0-19.78,3.99-37.76,24.25Z"/>
      <path class="cls-2" d="M119.13,675.71s-11-15.4-22.64-15.09l16.83,1.32s5.5,2.13,5.81,13.77Z"/>
      <path class="cls-2" d="M124.73,653.43s-13.07-6.44-21.28-6.21c-8.19.24,8.15-9.25,8.15-9.25l14.57,5.52-6.5,4.07,5.06,5.88Z"/>
    </g>
    <g>
      <path class="cls-2" d="M441.52,872.38s-12.03,24.2-2.04,40.23c0,0,3.94-.37,7.64-8.94,0,0-.82,5.39,4.76,10.96,0,0,5.13-1.81,5.19-9.51,0,0,8.82,6.34,12.57,6.78,0,0,3.89-9.39-.55-14.27,0,0,5.94-1.62,13.9-4.48,0,0,1.07-8.32-5.82-13.77,0,0,10.47,1.13,15.09-.37,0,0-4.05-12.08-8.74-14.02,0,0,4.5-2.81,6.51-4.05,0,0-9.13-6.84-14.58-5.53,0,0,3.76-5.13,3.82-7.26,0,0-19.77,3.99-37.75,24.26Z"/>
      <path class="cls-2" d="M482.99,893.14s-11.02-15.41-22.64-15.1l16.82,1.32s5.52,2.12,5.82,13.77Z"/>
      <path class="cls-2" d="M488.57,870.86s-13.07-6.45-21.27-6.2c-8.19.23,8.14-9.27,8.14-9.27l14.58,5.53-6.51,4.05,5.06,5.89Z"/>
    </g>
    <g>
      <path class="cls-2" d="M1501.79,677.86s-12.11,42.77,8.91,65.65c0,0,6.25-1.79,9.63-16.76,0,0,.32,8.94,11,16.25,0,0,7.73-4.48,5.53-16.94,0,0,16.16,7.56,22.36,7.14,0,0,3.44-16.34-5.21-22.9,0,0,9.11-4.42,21.1-11.47,0,0-.79-13.77-13.55-20.5,0,0,17.24-1.33,24.26-5.15,0,0-10.22-18.3-18.39-20.02,0,0,6.44-5.92,9.3-8.54,0,0-16.83-8.28-25.24-4.51,0,0,4.53-9.44,3.99-12.89,0,0-30.77,12.44-53.69,50.64Z"/>
      <path class="cls-2" d="M1575.12,698.82s-22.45-21.56-41.18-17.55l27.62-2.95s9.54,1.77,13.55,20.5Z"/>
      <path class="cls-2" d="M1577.4,661.14s-23.09-6.5-36.25-3.6c-13.17,2.87,10.35-17.43,10.35-17.43l25.24,4.51-9.3,8.54,9.97,7.98Z"/>
    </g>
    <g>
      <path class="cls-2" d="M1840.61,962.18s-5.93,20.97,4.38,32.18c0,0,3.05-.88,4.72-8.22,0,0,.15,4.38,5.38,7.97,0,0,3.8-2.19,2.71-8.3,0,0,7.93,3.7,10.96,3.5,0,0,1.7-8.02-2.57-11.23,0,0,4.48-2.17,10.36-5.63,0,0-.39-6.74-6.65-10.03,0,0,8.44-.66,11.89-2.53,0,0-5-8.97-9.01-9.81,0,0,3.15-2.9,4.54-4.18,0,0-8.25-4.06-12.35-2.22,0,0,2.21-4.62,1.95-6.31,0,0-15.07,6.11-26.32,24.8Z"/>
      <path class="cls-2" d="M1876.55,972.46s-11.01-10.55-20.18-8.59l13.52-1.44s4.68.86,6.65,10.03Z"/>
      <path class="cls-2" d="M1877.66,954s-11.32-3.17-17.77-1.76c-6.45,1.41,5.08-8.54,5.08-8.54l12.35,2.22-4.54,4.18,4.88,3.9Z"/>
    </g>
    <g>
      <path class="cls-1" d="M1582.24,285.36s21.17,34.22,49.29,34.15c0,0,2.62-5.28-5.32-16.68,0,0,6.17,5.25,17.58,2.59,0,0,1.73-7.91-7.94-14.03,0,0,14.92-6.2,18.42-10.59,0,0-8.82-12.28-18.48-10.5,0,0,2.61-8.78,5.22-21.08,0,0-9.68-7.9-21.97-3.46,0,0,9.64-12.33,11.38-19.36,0,0-18.47-4.35-24.61.06,0,0-.02-7.91-.02-11.43,0,0-15.8,6.19-18.42,14.11,0,0-3.54-8.79-6.17-10.53,0,0-10.48,28.13,1.04,66.77Z"/>
      <path class="cls-1" d="M1641.02,249.2s-28.11,1.81-36.86,16.78l14.89-20.24s7.02-5.3,21.97,3.46Z"/>
      <path class="cls-1" d="M1617.24,224.64s-18.42,11.48-24.55,22.03c-6.12,10.56-5.32-17.55-5.32-17.55l18.42-14.11.02,11.43,11.42-1.8Z"/>
    </g>
    <g>
      <path class="cls-1" d="M465.26,601.88s20.75,27.42,44.67,25.11c0,0,1.8-4.7-5.86-13.76,0,0,5.68,3.97,15.17.79,0,0,.85-6.87-7.88-11.3,0,0,12.19-6.47,14.82-10.49,0,0-8.49-9.73-16.56-7.45,0,0,1.53-7.69,2.75-18.36,0,0-8.87-5.93-18.97-1.18,0,0,7.2-11.27,8.12-17.38,0,0-16.05-2.23-20.93,2.03,0,0-.65-6.72-.94-9.71,0,0-12.94,6.52-14.54,13.47,0,0-3.71-7.19-6.09-8.46,0,0-6.66,24.78,6.24,56.72Z"/>
      <path class="cls-1" d="M512.37,566.41s-23.77,3.8-30.01,17.24l11.05-18.43s5.53-5.07,18.97,1.18Z"/>
      <path class="cls-1" d="M490.17,547.42s-14.76,11.24-19.12,20.72c-4.37,9.48-5.94-14.52-5.94-14.52l14.54-13.47.94,9.71,9.58-2.44Z"/>
    </g>
    <g>
      <path class="cls-1" d="M1035.31,257.49s32.86-7.14,40.66-29.34c0,0-3.43-3.53-14.63-.45,0,0,5.85-3.4,6.95-13.14,0,0-5.75-3.58-13.3,2.34,0,0-.7-13.49-3.2-17.47,0,0-12.14,3.52-13.43,11.63,0,0-6.19-4.51-15.17-9.99,0,0-8.92,5.43-8.86,16.36,0,0-7.04-11.03-12.09-14.36,0,0-8.58,13.35-6.81,19.41,0,0-6.24-2.19-9.01-3.16,0,0,.47,14.18,5.99,18.45,0,0-7.91.33-10.01,1.94,0,0,19.25,16.09,52.92,17.79Z"/>
      <path class="cls-1" d="M1023.2,201.07s-6.41,22.67,2.95,33.75l-11.8-17.39s-2.22-7,8.86-16.36Z"/>
      <path class="cls-1" d="M997.2,212.97s3.91,17.72,10.52,25.49c6.61,7.77-15.32-.71-15.32-.71l-5.99-18.45,9.01,3.16,1.77-9.5Z"/>
    </g>
    <g>
      <path class="cls-1" d="M938.87,850.98s-22.74-11.12-37.69-1.65c0,0,.37,3.68,8.42,7.11,0,0-5.04-.73-10.22,4.51,0,0,1.72,4.8,8.93,4.82,0,0-5.87,8.29-6.26,11.82,0,0,8.81,3.57,13.36-.61,0,0,1.55,5.55,4.29,12.98,0,0,7.8.95,12.87-5.53,0,0-.99,9.79.44,14.13,0,0,11.29-3.88,13.08-8.28,0,0,2.66,4.2,3.84,6.06,0,0,6.34-8.59,5.09-13.68,0,0,4.82,3.49,6.81,3.53,0,0-3.87-18.5-22.95-35.2Z"/>
      <path class="cls-1" d="M919.7,889.95s14.36-10.41,14.01-21.31l-1.14,15.78s-1.97,5.16-12.87,5.53Z"/>
      <path class="cls-1" d="M940.6,895.04s5.97-12.28,5.69-19.95c-.28-7.68,8.72,7.56,8.72,7.56l-5.09,13.68-3.84-6.06-5.48,4.77Z"/>
    </g>
    <g>
      <path class="cls-1" d="M1847.04,872.94s-22.75-11.12-37.7-1.66c0,0,.38,3.69,8.43,7.1,0,0-5.06-.73-10.23,4.52,0,0,1.72,4.8,8.93,4.81,0,0-5.86,8.29-6.26,11.82,0,0,8.82,3.58,13.37-.62,0,0,1.54,5.56,4.28,12.99,0,0,7.8.96,12.86-5.53,0,0-.99,9.8.44,14.14,0,0,11.29-3.89,13.08-8.29,0,0,2.67,4.2,3.85,6.06,0,0,6.33-8.58,5.08-13.68,0,0,4.83,3.49,6.82,3.54,0,0-3.86-18.49-22.95-35.2Z"/>
      <path class="cls-1" d="M1827.86,911.9s14.36-10.4,14.01-21.3l-1.15,15.77s-1.96,5.18-12.86,5.53Z"/>
      <path class="cls-1" d="M1848.76,917s5.97-12.28,5.68-19.97c-.28-7.66,8.72,7.56,8.72,7.56l-5.08,13.68-3.85-6.06-5.48,4.78Z"/>
    </g>
    <path class="cls-1" d="M414.74,147.15s29.18-12.97,32.14-35.1c0,0-3.86-2.63-13.67,2.4,0,0,4.8-4.29,3.92-13.54,0,0-6.03-2.22-11.89,4.72,0,0-3.26-12.39-6.34-15.62,0,0-10.6,5.62-10.24,13.41,0,0-6.62-3.01-16.03-6.38,0,0-7.24,6.77-5.07,16.9,0,0-8.66-8.89-14.01-11.02,0,0-5.4,14.05-2.6,19.35,0,0-6.2-.83-8.97-1.19,0,0,3.17,13.08,9.11,15.98,0,0-7.28,1.84-8.94,3.72,0,0,21,11.25,52.61,6.36Z"/>
    <path class="cls-1" d="M392.61,97.04s-1.58,22.3,9.24,30.79l-14.31-13.89s-3.4-6.08,5.07-16.9Z"/>
    <path class="cls-1" d="M370.77,113.1s7.03,15.72,14.68,21.66c7.64,5.95-14.38,2.3-14.38,2.3l-9.11-15.98,8.97,1.19-.17-9.17Z"/>
    <g>
      <path class="cls-3" d="M789.82,263.73s28.78,46.52,67.01,46.43c0,0,3.56-7.18-7.23-22.67,0,0,8.38,7.13,23.9,3.52,0,0,2.37-10.76-10.79-19.09,0,0,20.29-8.41,25.05-14.39,0,0-11.99-16.7-25.12-14.27,0,0,3.55-11.95,7.1-28.7,0,0-13.16-10.72-29.88-4.71,0,0,13.1-16.75,15.47-26.32,0,0-25.11-5.91-33.45.08,0,0-.03-10.75-.04-15.53,0,0-21.48,8.42-25.04,19.18,0,0-4.81-11.94-8.39-14.31,0,0-14.25,38.26,1.42,90.79Z"/>
      <path class="cls-1" d="M869.74,214.55s-38.22,2.48-50.12,22.83l20.24-27.54s9.54-7.18,29.88,4.71Z"/>
      <path class="cls-1" d="M837.4,181.18s-25.05,15.59-33.38,29.95c-8.33,14.34-7.23-23.88-7.23-23.88l25.04-19.18.04,15.53,15.52-2.43Z"/>
    </g>
    <g>
      <path class="cls-3" d="M216.02,145.42s15.06,24.33,35.04,24.28c0,0,1.86-3.76-3.78-11.86,0,0,4.38,3.72,12.5,1.85,0,0,1.23-5.63-5.65-9.99,0,0,10.61-4.39,13.1-7.52,0,0-6.27-8.73-13.13-7.47,0,0,1.86-6.25,3.72-15,0,0-6.89-5.6-15.62-2.45,0,0,6.84-8.78,8.08-13.78,0,0-13.12-3.09-17.49.05,0,0-.02-5.61-.02-8.11,0,0-11.23,4.4-13.09,10.02,0,0-2.51-6.23-4.39-7.47,0,0-7.45,20,.74,47.45Z"/>
      <path class="cls-1" d="M257.81,119.71s-19.99,1.3-26.22,11.94l10.59-14.39s4.98-3.77,15.62,2.45Z"/>
      <path class="cls-1" d="M240.91,102.27s-13.1,8.15-17.46,15.65c-4.35,7.51-3.78-12.49-3.78-12.49l13.09-10.02.02,8.11,8.12-1.27Z"/>
    </g>
    <g>
      <path class="cls-3" d="M276.25,844.75s19.65,31.77,45.75,31.7c0,0,2.43-4.91-4.94-15.48,0,0,5.73,4.87,16.32,2.4,0,0,1.61-7.34-7.38-13.03,0,0,13.86-5.75,17.11-9.82,0,0-8.19-11.42-17.16-9.75,0,0,2.43-8.16,4.86-19.6,0,0-8.99-7.31-20.4-3.2,0,0,8.94-11.45,10.56-17.97,0,0-17.14-4.04-22.84.07,0,0-.02-7.35-.02-10.6,0,0-14.67,5.73-17.1,13.09,0,0-3.28-8.15-5.73-9.78,0,0-9.73,26.14.97,62Z"/>
      <path class="cls-1" d="M330.82,811.16s-26.11,1.7-34.22,15.59l13.82-18.8s6.5-4.91,20.4,3.2Z"/>
      <path class="cls-1" d="M308.74,788.38s-17.11,10.66-22.8,20.47c-5.68,9.79-4.93-16.31-4.93-16.31l17.1-13.09.02,10.6,10.61-1.68Z"/>
    </g>
    <g>
      <path class="cls-2" d="M566.99,321.16s19.49-10.21,27.04,5.67c0,0,10.03,15.13-10.66,26.65,0,0,10.98,8.86,4.18,24.13,0,0-13.32,23.03-35.99,4.08,0,0-4.66,21.4-25.72,10.48,0,0-10.93-7.63-5.4-23.45,0,0-22.83-8.96-17.33-25.41,0,0,7.05-24,29.21-16.26,0,0-6.88-14.65,12.1-22.35,0,0,25.41-3.62,22.56,16.46Z"/>
      <path class="cls-3" d="M551.7,369.02c-8.61.38-15.91-6.65-16.31-15.71-.4-9.05,6.25-16.69,14.88-17.09,8.62-.36,15.92,6.65,16.34,15.72.39,9.04-6.28,16.7-14.91,17.08Z"/>
    </g>
    <g>
      <path class="cls-2" d="M96.5,873.29s13.88-7.28,19.26,4.03c0,0,7.14,10.78-7.59,18.98,0,0,7.83,6.32,2.98,17.18,0,0-9.49,16.4-25.62,2.89,0,0-3.32,15.26-18.31,7.49,0,0-7.79-5.43-3.84-16.71,0,0-16.27-6.38-12.35-18.1,0,0,5.02-17.08,20.8-11.56,0,0-4.9-10.43,8.62-15.92,0,0,18.08-2.57,16.05,11.73Z"/>
      <path class="cls-3" d="M85.62,907.35c-6.13.29-11.33-4.73-11.62-11.18-.28-6.44,4.45-11.88,10.6-12.17,6.14-.26,11.34,4.74,11.63,11.19.28,6.44-4.46,11.9-10.61,12.15Z"/>
    </g>
    <g>
      <path class="cls-2" d="M1735.79,559.04s13.88-7.28,19.26,4.03c0,0,7.15,10.78-7.59,18.98,0,0,7.83,6.31,2.98,17.18,0,0-9.49,16.4-25.62,2.89,0,0-3.32,15.26-18.31,7.49,0,0-7.79-5.43-3.84-16.71,0,0-16.27-6.38-12.35-18.1,0,0,5.02-17.08,20.8-11.56,0,0-4.9-10.43,8.62-15.92,0,0,18.08-2.57,16.05,11.73Z"/>
      <path class="cls-3" d="M1724.91,593.1c-6.12.29-11.33-4.73-11.62-11.18-.28-6.44,4.45-11.88,10.6-12.17,6.14-.26,11.33,4.74,11.63,11.19.28,6.44-4.46,11.9-10.61,12.15Z"/>
    </g>
    <g>
      <path class="cls-2" d="M1443.15,844.54s13.88-7.28,19.26,4.03c0,0,7.15,10.78-7.59,18.98,0,0,7.83,6.31,2.98,17.18,0,0-9.49,16.4-25.62,2.89,0,0-3.32,15.26-18.31,7.49,0,0-7.79-5.43-3.84-16.71,0,0-16.27-6.38-12.35-18.1,0,0,5.02-17.08,20.8-11.56,0,0-4.9-10.43,8.62-15.92,0,0,18.08-2.57,16.05,11.73Z"/>
      <path class="cls-3" d="M1432.28,878.6c-6.12.29-11.33-4.73-11.62-11.18-.28-6.44,4.45-11.88,10.6-12.17,6.14-.26,11.33,4.74,11.63,11.19.28,6.44-4.46,11.9-10.61,12.15Z"/>
    </g>
    <g>
      <path class="cls-2" d="M1530.77,911.93s16.79-8.8,23.29,4.87c0,0,8.64,13.03-9.18,22.95,0,0,9.47,7.64,3.6,20.78,0,0-11.47,19.84-30.98,3.5,0,0-4.02,18.45-22.14,9.05,0,0-9.42-6.57-4.65-20.2,0,0-19.68-7.72-14.94-21.9,0,0,6.07-20.65,25.15-13.98,0,0-5.92-12.62,10.43-19.26,0,0,21.86-3.11,19.4,14.18Z"/>
      <path class="cls-3" d="M1517.62,953.13c-7.41.35-13.7-5.72-14.05-13.51-.33-7.78,5.39-14.37,12.82-14.72,7.43-.31,13.71,5.73,14.07,13.54.34,7.79-5.39,14.39-12.83,14.69Z"/>
    </g>
    <g>
      <path class="cls-2" d="M651.9,889.13s13.88-7.28,19.26,4.03c0,0,7.14,10.78-7.59,18.98,0,0,7.82,6.32,2.98,17.17,0,0-9.48,16.4-25.62,2.91,0,0-3.32,15.24-18.31,7.47,0,0-7.79-5.43-3.84-16.71,0,0-16.27-6.37-12.35-18.09,0,0,5.03-17.09,20.8-11.58,0,0-4.9-10.43,8.62-15.92,0,0,18.08-2.58,16.05,11.72Z"/>
      <path class="cls-3" d="M641.01,923.2c-6.12.27-11.33-4.74-11.62-11.18-.28-6.46,4.46-11.9,10.6-12.19,6.14-.25,11.34,4.74,11.64,11.19.27,6.45-4.47,11.9-10.62,12.17Z"/>
    </g>
    <g>
      <path class="cls-3" d="M105.82,339.6s10.33-5.41,14.33,3c0,0,5.31,8.03-5.65,14.12,0,0,5.82,4.7,2.22,12.78,0,0-7.06,12.2-19.07,2.17,0,0-2.46,11.34-13.62,5.55,0,0-5.79-4.03-2.86-12.42,0,0-12.1-4.75-9.18-13.47,0,0,3.74-12.71,15.47-8.61,0,0-3.64-7.76,6.42-11.85,0,0,13.46-1.9,11.95,8.73Z"/>
      <path class="cls-3" d="M97.73,364.96c-4.56.2-8.44-3.53-8.65-8.32-.21-4.8,3.31-8.86,7.89-9.06,4.57-.2,8.44,3.52,8.65,8.32.21,4.79-3.32,8.85-7.89,9.06Z"/>
    </g>
    <path class="cls-3" d="M1480.17,311.49s42.81,42.61-3.96,93.77c0,0-36.57-46.8,3.96-93.77Z"/>
    <path class="cls-3" d="M1608,783.25s30.02,29.88-2.77,65.75c0,0-25.65-32.82,2.77-65.75Z"/>
    <path class="cls-3" d="M1757.53,675.33s30.01,29.89-2.77,65.77c0,0-25.66-32.82,2.77-65.77Z"/>
    <path class="cls-3" d="M1757.89,672.92s30.56-29.33,65.67,4.28c0,0-33.4,24.89-65.67-4.28Z"/>
    <path class="cls-3" d="M1849.86,1027.7s30.58-29.33,65.69,4.28c0,0-33.41,24.88-65.69-4.28Z"/>
    <path class="cls-3" d="M1544.77,336.43s30.02,29.89-2.78,65.77c0,0-25.65-32.82,2.78-65.77Z"/>
    <path class="cls-3" d="M1545.13,341.99s30.58-29.32,65.69,4.29c0,0-33.39,24.88-65.69-4.29Z"/>
    <path class="cls-1" d="M1610.07,649.39s30.02,29.89-2.79,65.76c0,0-25.64-32.82,2.79-65.76Z"/>
    <path class="cls-1" d="M1610.44,654.95s30.57-29.33,65.68,4.28c0,0-33.4,24.89-65.68-4.28Z"/>
    <path class="cls-1" d="M1372.08,743.19s30.01,29.9-2.77,65.76c0,0-25.66-32.82,2.77-65.76Z"/>
    <path class="cls-1" d="M1369.25,743.97s30.57-29.33,65.68,4.29c0,0-33.4,24.88-65.68-4.29Z"/>
    <path class="cls-3" d="M1313.26,476.83s30.02,29.88-2.77,65.75c0,0-25.65-32.82,2.77-65.75Z"/>
    <path class="cls-3" d="M1313.64,482.38s30.56-29.33,65.67,4.29c0,0-33.4,24.88-65.67-4.29Z"/>
    <path class="cls-1" d="M729.73,832s30.02,29.88-2.78,65.76c0,0-25.65-32.83,2.78-65.76Z"/>
    <path class="cls-3" d="M544.65,738.44s30.02,29.89-2.78,65.77c0,0-25.64-32.82,2.78-65.77Z"/>
    <path class="cls-3" d="M497.91,713.79s40.93-10.93,55.46,35.46c0,0-41.27,5.67-55.46-35.46Z"/>
    <path class="cls-1" d="M725.31,837.57s30.57-29.33,65.68,4.29c0,0-33.4,24.88-65.68-4.29Z"/>
    <path class="cls-1" d="M941.31,359.42s30.01,29.89-2.78,65.76c0,0-25.64-32.81,2.78-65.76Z"/>
    <path class="cls-1" d="M941.67,364.98s30.57-29.33,65.68,4.3c0,0-33.39,24.87-65.68-4.3Z"/>
    <path class="cls-1" d="M1077.5,817.52s31.03-15.46,50.25,19.35c0,0-32.15,11.3-50.25-19.35Z"/>
    <path class="cls-1" d="M1081.89,818.69s-14.73-31.37,20.5-49.8c0,0,10.56,32.4-20.5,49.8Z"/>
    <path class="cls-3" d="M448.73,598.57s30.53-15.21,49.46,19.04c0,0-31.65,11.12-49.46-19.04Z"/>
    <path class="cls-3" d="M453.06,599.71s-14.51-30.86,20.18-49.01c0,0,10.39,31.9-20.18,49.01Z"/>
    <path class="cls-1" d="M1135.65,337.67s-12.92-20.86,10.37-36.69c0,0,10.05,21.92-10.37,36.69Z"/>
    <path class="cls-1" d="M1136.18,334.48s-21.15,12.43-36.44-11.2c0,0,22.16-9.55,36.44,11.2Z"/>
    <path class="cls-3" d="M239.67,319.45s24.45,23.78-1.62,52.97c0,0-20.97-26.18,1.62-52.97Z"/>
    <path class="cls-3" d="M240.02,323.92s24.34-23.89,52.92,2.84c0,0-26.66,20.34-52.92-2.84Z"/>
    <path class="cls-1" d="M200.93,932.64s24.45,23.78-1.62,52.98c0,0-20.96-26.18,1.62-52.98Z"/>
    <path class="cls-1" d="M201.28,937.1s24.34-23.88,52.93,2.84c0,0-26.67,20.36-52.93-2.84Z"/>
    <path class="cls-1" d="M1798.41,454.13s30.03,29.89-2.77,65.76c0,0-25.64-32.82,2.77-65.76Z"/>
  </g>
</svg>