<?xml version="1.0" encoding="UTF-8"?>
<svg id="Layer_1" data-name="Layer 1" xmlns="http://www.w3.org/2000/svg" viewBox="0 0 400 37.91">
  <defs>
    <style>
      .cls-1 {
        fill: #82303f;
      }

      .cls-2 {
        fill: #222a3d;
      }
    </style>
  </defs>
  <g>
    <path class="cls-1" d="M260.37,33.87l-1.1-.36c-.48-.15-.82-.36-1.01-.6-.2-.25-.31-.68-.35-1.3l-1.77-25c-.05-.65.02-1.12.22-1.42.2-.3.58-.54,1.14-.73l1.13-.36c.39-.14.69-.34.9-.6.21-.26.31-.59.31-.99,0-.48-.15-.85-.46-1.1s-.79-.39-1.44-.39h-8.68c-.98,0-1.74.21-2.3.63-.56.42-1.04,1.19-1.45,2.3l-6.97,18.27-7.33-18.38c-.43-1.13-.92-1.88-1.48-2.26-.56-.38-1.29-.56-2.19-.56h-8.57c-1.28,0-1.93.5-1.93,1.49,0,.41.1.75.31,1.01.21.27.52.47.95.6l1.1.33c.58.19.98.5,1.18.94.21.44.27,1.1.21,1.99l-1.95,23.38c-.07.77-.28,1.36-.64,1.77-.36.41-.82.74-1.39.98l-.77.28c-.41.19-.74.4-.99.64-.25.24-.37.58-.37,1.03s.15.83.46,1.09c.31.27.79.4,1.44.4h7.85c.65,0,1.13-.14,1.44-.42.31-.28.46-.65.46-1.12,0-.34-.08-.62-.24-.83-.16-.21-.39-.39-.68-.53l-.98-.44c-.63-.31-1.15-.66-1.54-1.06-.39-.4-.56-.99-.49-1.76l1.56-18.99,8.56,21.35c.32.82.64,1.42.95,1.8s.63.62.98.72c.34.1.73.15,1.16.15.58,0,1.08-.15,1.5-.45.42-.3.83-.99,1.22-2.07l8.23-21.66,1.53,19.97c.03.53-.04.93-.23,1.21-.19.27-.56.51-1.13.69l-1.16.36c-.44.14-.76.34-.95.62-.19.27-.28.6-.28.98,0,.46.16.83.47,1.09.32.27.81.4,1.48.4h13.32c.65,0,1.13-.15,1.44-.45.31-.3.46-.67.46-1.12,0-.38-.09-.69-.28-.95-.19-.26-.47-.44-.85-.57Z"/>
    <path class="cls-1" d="M295.46,25.12c-.46-.09-.88-.04-1.24.13-.37.17-.66.5-.89.98-.96,2.09-1.85,3.68-2.68,4.77-.83,1.1-1.7,1.84-2.62,2.22-.92.39-1.99.58-3.22.58h-2.85c-.98,0-1.72-.23-2.22-.71-.5-.47-.76-1.19-.76-2.14v-10.6h4.31c.82,0,1.49.08,2.01.23.52.15,1,.44,1.42.85.43.41.9,1.01,1.41,1.8.24.38.54.62.9.73.36.11.75.1,1.18-.04.43-.14.71-.36.85-.68.14-.32.14-.75,0-1.3l-1.95-7.85c-.22-.89-.73-1.33-1.51-1.31-.38.02-.7.14-.98.37-.27.23-.48.6-.62,1.09-.29,1.2-.66,2-1.1,2.41-.44.41-1.19.62-2.23.62h-3.7V4.17h5.08c.87,0,1.66.09,2.35.26.69.17,1.35.48,1.96.94.62.45,1.22,1.1,1.82,1.95.6.85,1.24,1.94,1.93,3.27.26.5.59.84,1.01,1.04.42.2.89.2,1.42.01.46-.15.77-.41.94-.76s.17-.79.01-1.32l-2.13-7.19c-.24-.82-.53-1.42-.86-1.78-.33-.37-.83-.55-1.48-.55-.53,0-1,.08-1.4.24-.4.16-.83.33-1.3.49-.46.16-1.04.24-1.75.24h-19.4c-.65,0-1.13.13-1.44.39-.31.26-.46.62-.46,1.1,0,.79.41,1.33,1.23,1.62l1.21.33c.43.15.75.36.96.6s.32.58.32.99v25.87c0,.41-.11.74-.32.99s-.53.45-.96.6l-1.21.33c-.82.29-1.23.83-1.23,1.62,0,.46.15.83.46,1.09.31.27.79.4,1.44.4h20.43c.68,0,1.26.08,1.73.23.47.15.9.31,1.3.46s.82.23,1.28.23c.72,0,1.25-.19,1.59-.56.34-.38.63-.97.87-1.77l2.28-8.32c.15-.56.12-1.03-.12-1.41-.23-.38-.6-.61-1.12-.69Z"/>
    <path class="cls-1" d="M332.06,6.4c-1.86-1.71-4.09-3.04-6.67-3.98-2.58-.94-5.46-1.41-8.62-1.41h-14.81c-.65,0-1.13.13-1.44.39-.31.26-.46.62-.46,1.1,0,.79.41,1.33,1.23,1.62l1.21.33c.43.15.75.36.96.6.21.25.32.58.32.99v25.87c0,.41-.11.74-.32.99-.21.25-.54.45-.96.6l-1.21.33c-.82.29-1.23.83-1.23,1.62,0,.46.15.83.46,1.09.31.27.79.4,1.44.4h17.22c3.85,0,7.17-.72,9.96-2.17,2.79-1.45,4.94-3.43,6.46-5.96,1.51-2.52,2.27-5.4,2.27-8.64,0-2.81-.5-5.38-1.5-7.71s-2.43-4.36-4.3-6.07ZM326.39,27.82c-.82,2.03-1.95,3.53-3.39,4.5-1.44.98-3.1,1.46-4.98,1.46h-1.41c-.94,0-1.66-.21-2.14-.63-.49-.42-.73-1.08-.73-1.99V4.17h1.87c1.87,0,3.54.36,5.02,1.08,1.48.72,2.74,1.77,3.79,3.14,1.04,1.38,1.84,3.05,2.39,5,.55,1.96.82,4.18.82,6.66,0,3.15-.41,5.74-1.23,7.76Z"/>
    <path class="cls-1" d="M356.08,5.06c.22-.25.55-.45.98-.6l1.21-.33c.8-.29,1.21-.83,1.21-1.62,0-.48-.15-.85-.45-1.1-.3-.26-.77-.39-1.42-.39h-13.6c-.65,0-1.13.13-1.44.39-.31.26-.46.62-.46,1.1,0,.79.4,1.33,1.21,1.62l1.21.33c.44.15.77.36.99.6.21.25.32.58.32.99v25.87c0,.41-.11.74-.32.99-.21.25-.54.45-.99.6l-1.21.33c-.8.29-1.21.83-1.21,1.62,0,.46.15.83.46,1.09.31.27.79.4,1.44.4h13.6c.65,0,1.13-.13,1.42-.4.3-.26.45-.63.45-1.09,0-.79-.4-1.33-1.21-1.62l-1.21-.33c-.43-.15-.75-.36-.98-.6s-.33-.58-.33-.99V6.04c0-.41.11-.74.33-.99Z"/>
    <path class="cls-1" d="M399.7,34.5c-.2-.25-.57-.5-1.12-.76-.53-.2-.95-.54-1.24-1.01-.3-.47-.6-1.21-.91-2.22l-7.88-24.26c-.22-.67-.29-1.15-.21-1.45.09-.3.35-.53.8-.71.41-.17.72-.39.92-.64.21-.26.31-.58.31-.98,0-.46-.15-.82-.46-1.08-.31-.26-.79-.39-1.44-.39h-14.55c-.65,0-1.13.13-1.45.39s-.47.62-.47,1.08c0,.38.1.69.3.95.2.26.53.49,1.01.69.62.26.97.58,1.07.96.09.39,0,1.02-.27,1.91l-7.39,23.13c-.36,1.15-.68,1.95-.98,2.4s-.71.83-1.26,1.12l-.67.33c-.41.22-.7.45-.86.68s-.24.51-.24.83c0,.44.16.8.47,1.06.32.27.79.4,1.42.4h8.14c.65,0,1.12-.13,1.42-.4.3-.26.45-.63.45-1.09,0-.36-.11-.65-.32-.86-.21-.21-.51-.41-.89-.58l-1.05-.33c-.65-.32-1.13-.65-1.42-.98s-.44-.73-.44-1.22c0-.49.14-1.13.4-1.91l1.37-4.31h12.14l1.88,6.01c.24.74.38,1.27.42,1.6.04.33-.16.59-.6.76l-1.16.33c-.41.17-.72.37-.92.6-.2.23-.31.53-.31.89,0,.46.15.83.46,1.09.31.27.79.4,1.44.4h12.45c.65,0,1.13-.13,1.45-.4.32-.26.48-.63.48-1.09,0-.39-.1-.71-.3-.96ZM373.31,21.98l5.08-15.94,4.99,15.94h-10.07Z"/>
  </g>
  <g>
    <path class="cls-2" d="M42.51,35.01l-1.41-.36c-.56-.14-.96-.32-1.19-.56-.23-.24-.36-.64-.4-1.21l-2.1-27.18c-.05-.75.03-1.29.26-1.6.22-.32.64-.55,1.26-.71l1.46-.36c.38-.1.64-.24.8-.41.15-.17.23-.38.23-.62,0-.31-.11-.54-.33-.71-.22-.16-.56-.24-1-.24h-6.08c-.65,0-1.16.14-1.53.41-.37.27-.68.75-.94,1.44l-9.44,23.62L12.32,2.77c-.26-.68-.57-1.14-.94-1.37-.37-.23-.86-.35-1.48-.35H3.93c-.91,0-1.36.33-1.36.98,0,.27.09.5.26.67.17.17.45.31.85.41l1.36.28c.62.15,1.05.42,1.31.78.26.37.35.89.28,1.58l-2.31,26.46c-.07.7-.26,1.23-.58,1.59-.32.36-.78.62-1.4.8l-1.23.39c-.34.1-.61.23-.81.39-.2.15-.3.38-.3.67s.11.52.33.69c.22.17.56.26,1,.26h8.37c.44,0,.78-.09,1-.27.22-.18.33-.41.33-.71,0-.24-.08-.43-.24-.57-.16-.14-.37-.26-.63-.36l-1.49-.44c-.67-.24-1.17-.53-1.51-.86-.34-.33-.48-.85-.41-1.55l1.98-22.72,9.88,24c.19.45.37.78.54,1,.17.22.36.37.56.45.21.08.44.12.69.12.32,0,.62-.09.87-.28.26-.19.5-.6.72-1.23l9.64-24.26,1.91,23.6c.03.5-.06.87-.28,1.13-.22.26-.67.46-1.33.62l-1.41.36c-.38.1-.64.24-.8.41-.15.17-.23.38-.23.62,0,.29.11.52.33.69.22.17.56.26,1,.26h11.32c.44,0,.78-.09,1-.28.22-.19.33-.42.33-.69,0-.24-.08-.44-.23-.62-.15-.17-.4-.3-.74-.39Z"/>
    <path class="cls-2" d="M79.39,34.93c-.6-.14-1.06-.38-1.39-.73-.33-.35-.6-.88-.82-1.58l-9.52-28.05c-.15-.5-.18-.85-.09-1.07.09-.21.39-.37.89-.47.44-.1.76-.24.95-.41.19-.17.28-.39.28-.67s-.11-.49-.32-.65c-.21-.16-.55-.24-1.01-.24h-10.65c-.45,0-.78.08-1,.24-.22.16-.33.39-.33.68,0,.24.09.44.28.62.19.17.52.33,1,.46.62.15.98.36,1.09.63.11.27.06.71-.14,1.32l-9.03,26.92c-.29.94-.56,1.59-.81,1.95-.25.36-.62.64-1.12.85l-.98.33c-.38.15-.63.3-.76.45-.13.15-.19.33-.19.55,0,.27.11.5.32.67.21.17.54.26.99.26h7.96c.46,0,.8-.09,1-.26.21-.17.31-.4.31-.69,0-.26-.08-.45-.24-.59-.16-.14-.41-.26-.76-.36l-1.72-.31c-.51-.19-.89-.4-1.14-.64-.25-.24-.37-.56-.37-.96s.1-.91.31-1.53l2.25-6.75h13.68l2.65,7.93c.21.63.3,1.09.3,1.37,0,.28-.24.47-.68.58l-1.82.28c-.34.1-.6.23-.76.39-.16.15-.24.35-.24.59,0,.29.11.52.32.69.21.17.54.26.99.26h10.22c.44,0,.78-.09,1-.26.22-.17.33-.4.33-.69,0-.26-.08-.47-.24-.63-.16-.16-.48-.32-.96-.47ZM55.35,22.69l6.09-18.28,6.11,18.28h-12.21Z"/>
    <path class="cls-2" d="M110.63,1.44c-.14-.51-.33-.88-.58-1.1-.25-.22-.6-.33-1.04-.33-.34,0-.65.09-.91.26-.27.17-.56.35-.9.53s-.79.27-1.37.27h-18.33c-.56,0-1.02-.09-1.36-.27-.34-.18-.64-.36-.9-.53-.26-.17-.56-.26-.92-.26-.45,0-.79.11-1.04.33-.25.22-.44.59-.58,1.1l-1.75,8.09c-.07.41-.04.74.09,1s.36.42.71.49c.32.07.62.03.87-.1.26-.14.46-.39.62-.74.82-1.97,1.53-3.44,2.12-4.43.59-.98,1.21-1.65,1.85-1.99.64-.34,1.44-.51,2.4-.51h4.06v30.06c0,.36-.11.65-.32.89s-.53.4-.96.5l-1.67.31c-.65.19-.98.54-.98,1.05,0,.29.1.52.31.69.21.17.52.26.95.26h11.34c.84,0,1.26-.32,1.26-.95,0-.51-.33-.86-.98-1.05l-1.67-.31c-.41-.1-.73-.27-.95-.5-.22-.23-.33-.53-.33-.89V3.23h4.06c.98,0,1.78.17,2.43.51.64.34,1.26,1.01,1.85,1.99.59.98,1.29,2.46,2.09,4.43.17.36.38.61.63.74.25.14.53.17.86.1.34-.07.58-.23.72-.49.14-.26.16-.59.08-1l-1.75-8.09Z"/>
    <path class="cls-2" d="M147.38,27.16c-.24-.03-.45,0-.64.13-.19.12-.36.34-.51.67-.92,2.05-2.28,3.66-4.07,4.81-1.79,1.16-3.94,1.73-6.46,1.73s-4.8-.65-6.81-1.95c-2.01-1.3-3.6-3.19-4.76-5.67-1.16-2.48-1.75-5.48-1.75-8.98,0-2.33.29-4.44.86-6.34.57-1.9,1.38-3.53,2.43-4.89,1.04-1.36,2.27-2.4,3.68-3.13,1.41-.73,2.95-1.09,4.61-1.09s3.18.28,4.57.83c1.39.56,2.66,1.45,3.81,2.68,1.15,1.23,2.21,2.87,3.17,4.9.15.33.36.56.62.69.26.14.55.18.87.13.34-.05.59-.21.76-.46.16-.26.19-.56.09-.92l-2.75-8.7c-.12-.38-.27-.64-.44-.8-.17-.15-.38-.23-.62-.23-.41,0-.71.15-.89.46-.18.31-.36.62-.54.92-.18.31-.47.46-.89.46-.33,0-.8-.18-1.42-.55-.62-.37-1.49-.74-2.61-1.1-1.11-.37-2.57-.55-4.36-.55-2.43,0-4.68.47-6.75,1.41-2.07.94-3.87,2.27-5.4,3.99-1.53,1.72-2.72,3.73-3.57,6.04-.85,2.31-1.27,4.84-1.27,7.6,0,3.63.71,6.84,2.14,9.65,1.43,2.81,3.47,5.01,6.11,6.61,2.64,1.6,5.79,2.4,9.43,2.4,2.21,0,4.17-.3,5.89-.9,1.72-.6,3.18-1.39,4.39-2.37,1.21-.98,2.13-2.06,2.76-3.22.63-1.16.95-2.31.95-3.44,0-.24-.06-.43-.17-.56s-.27-.22-.47-.26Z"/>
    <path class="cls-2" d="M185.99,3.86c.22-.23.54-.4.95-.5l1.67-.31c.67-.19,1-.54,1-1.05,0-.31-.1-.54-.31-.71s-.53-.24-.98-.24h-11.34c-.43,0-.74.08-.95.24s-.31.4-.31.71c0,.51.32.86.98,1.05l1.69.31c.41.1.72.27.94.5.21.23.32.53.32.89v14.12h-16.97V4.75c0-.36.11-.65.33-.89.22-.23.53-.4.92-.5l1.69-.31c.65-.19.98-.54.98-1.05,0-.31-.1-.54-.3-.71-.2-.16-.52-.24-.96-.24h-11.34c-.45,0-.77.08-.98.24s-.31.4-.31.71c0,.51.33.86,1,1.05l1.67.31c.41.1.73.27.95.5.22.23.33.53.33.89v28.54c0,.36-.11.65-.33.89-.22.23-.54.4-.95.5l-1.67.31c-.67.19-1,.54-1,1.05,0,.29.1.52.31.69.21.17.53.26.98.26h11.34c.44,0,.77-.09.96-.26.2-.17.3-.4.3-.69,0-.51-.33-.86-.98-1.05l-1.69-.31c-.39-.1-.7-.27-.92-.5-.22-.23-.33-.53-.33-.89v-12.22h16.97v12.22c0,.36-.11.65-.32.89-.21.23-.53.4-.94.5l-1.69.31c-.65.19-.98.54-.98,1.05,0,.29.1.52.31.69.21.17.52.26.95.26h11.34c.44,0,.77-.09.98-.26.21-.17.31-.4.31-.69,0-.51-.33-.86-1-1.05l-1.67-.31c-.41-.1-.73-.27-.95-.5-.22-.23-.33-.53-.33-.89V4.75c0-.36.11-.65.33-.89Z"/>
  </g>
</svg>