<?xml version="1.0" encoding="UTF-8"?>
<svg id="Layer_1" data-name="Layer 1" xmlns="http://www.w3.org/2000/svg" viewBox="0 0 64 30.56">
  <defs>
    <style>
      .cls-1 {
        fill: #82303f;
      }

      .cls-2 {
        fill: #222a3d;
      }
    </style>
  </defs>
  <path class="cls-2" d="M57.85,0l-9.7,13.25L38.15,0h-12.31l-9.7,13.25L6.15,0H0v30.56h6.36V10.44l9.23,12.33h.82l9.23-11.9v6.06c.81-.64,1.81-.98,2.86-.98,1.24,0,2.4.48,3.28,1.36l.21.21h0s.2-.21.2-.21c.88-.88,2.04-1.36,3.28-1.36,1.06,0,2.06.35,2.88,1v-6.5l9.23,12.33h.82l9.23-11.9v19.7h6.36V0h-6.15Z"/>
  <path class="cls-1" d="M38.33,17.73c-.76-.76-1.78-1.18-2.85-1.18s-2.09.42-2.85,1.18l-.64.64-.64-.64c-.76-.76-1.78-1.18-2.85-1.18-1.07,0-2.09.42-2.85,1.18-.76.76-1.18,1.78-1.18,2.85-.36,3.94,6.97,9.38,7.52,9.38,1.04,0,8.08-6.52,7.52-9.38,0-1.07-.42-2.09-1.18-2.85Z"/>
</svg>