<?xml version="1.0" encoding="UTF-8"?>
<svg id="Layer_1" data-name="Layer 1" xmlns="http://www.w3.org/2000/svg" viewBox="0 0 62.13 22.98">
  <defs>
    <style>
      .cls-1 {
        fill: #82303f;
      }

      .cls-2 {
        fill: #222a3d;
      }
    </style>
  </defs>
  <g>
    <g>
      <path class="cls-1" d="M40.44,22.35l-.17-.06c-.07-.02-.13-.06-.16-.09-.03-.04-.05-.11-.05-.2l-.28-3.88c0-.1,0-.17.03-.22.03-.05.09-.08.18-.11l.18-.06c.06-.02.11-.05.14-.09.03-.04.05-.09.05-.15,0-.07-.02-.13-.07-.17s-.12-.06-.22-.06h-1.35c-.15,0-.27.03-.36.1-.09.07-.16.18-.23.36l-1.08,2.84-1.14-2.85c-.07-.18-.14-.29-.23-.35-.09-.06-.2-.09-.34-.09h-1.33c-.2,0-.3.08-.3.23,0,.06.02.12.05.16.03.04.08.07.15.09l.17.05c.09.03.15.08.18.15.03.07.04.17.03.31l-.3,3.63c-.01.12-.04.21-.1.28-.06.06-.13.11-.22.15l-.12.04c-.06.03-.11.06-.15.1-.04.04-.06.09-.06.16s.02.13.07.17c.05.04.12.06.22.06h1.22c.1,0,.18-.02.22-.07.05-.04.07-.1.07-.17,0-.05-.01-.1-.04-.13-.03-.03-.06-.06-.11-.08l-.15-.07c-.1-.05-.18-.1-.24-.17-.06-.06-.09-.15-.08-.27l.24-2.95,1.33,3.32c.05.13.1.22.15.28s.1.1.15.11c.05.02.11.02.18.02.09,0,.17-.02.23-.07.07-.05.13-.15.19-.32l1.28-3.36.24,3.1c0,.08,0,.14-.04.19-.03.04-.09.08-.18.11l-.18.06c-.07.02-.12.05-.15.1-.03.04-.04.09-.04.15,0,.07.02.13.07.17.05.04.13.06.23.06h2.07c.1,0,.18-.02.22-.07.05-.05.07-.1.07-.17,0-.06-.01-.11-.04-.15-.03-.04-.07-.07-.13-.09Z"/>
      <path class="cls-1" d="M45.9,20.99c-.07-.01-.14,0-.19.02-.06.03-.1.08-.14.15-.15.32-.29.57-.42.74-.13.17-.26.29-.41.34-.14.06-.31.09-.5.09h-.44c-.15,0-.27-.04-.34-.11-.08-.07-.12-.18-.12-.33v-1.65h.67c.13,0,.23.01.31.04.08.02.15.07.22.13.07.06.14.16.22.28.04.06.08.1.14.11.06.02.12.02.18,0,.07-.02.11-.06.13-.11.02-.05.02-.12,0-.2l-.3-1.22c-.03-.14-.11-.21-.24-.2-.06,0-.11.02-.15.06-.04.04-.07.09-.1.17-.05.19-.1.31-.17.37-.07.06-.18.1-.35.1h-.57v-2.03h.79c.14,0,.26.01.36.04.11.03.21.08.31.15.1.07.19.17.28.3.09.13.19.3.3.51.04.08.09.13.16.16.07.03.14.03.22,0,.07-.02.12-.06.15-.12s.03-.12,0-.21l-.33-1.12c-.04-.13-.08-.22-.13-.28-.05-.06-.13-.09-.23-.09-.08,0-.15.01-.22.04-.06.03-.13.05-.2.08-.07.03-.16.04-.27.04h-3.01c-.1,0-.18.02-.22.06-.05.04-.07.1-.07.17,0,.12.06.21.19.25l.19.05c.07.02.12.06.15.09s.05.09.05.15v4.02c0,.06-.02.12-.05.15s-.08.07-.15.09l-.19.05c-.13.05-.19.13-.19.25,0,.07.02.13.07.17.05.04.12.06.22.06h3.17c.11,0,.2.01.27.04.07.02.14.05.2.07s.13.04.2.04c.11,0,.19-.03.25-.09.05-.06.1-.15.14-.28l.35-1.29c.02-.09.02-.16-.02-.22-.04-.06-.09-.09-.17-.11Z"/>
      <path class="cls-1" d="M51.58,18.09c-.29-.27-.64-.47-1.04-.62-.4-.15-.85-.22-1.34-.22h-2.3c-.1,0-.18.02-.22.06-.05.04-.07.1-.07.17,0,.12.06.21.19.25l.19.05c.07.02.12.06.15.09.03.04.05.09.05.15v4.02c0,.06-.02.12-.05.15-.03.04-.08.07-.15.09l-.19.05c-.13.05-.19.13-.19.25,0,.07.02.13.07.17.05.04.12.06.22.06h2.68c.6,0,1.11-.11,1.55-.34.43-.22.77-.53,1-.93.24-.39.35-.84.35-1.34,0-.44-.08-.84-.23-1.2s-.38-.68-.67-.94ZM50.7,21.41c-.13.31-.3.55-.53.7-.22.15-.48.23-.77.23h-.22c-.15,0-.26-.03-.33-.1-.08-.07-.11-.17-.11-.31v-4.19h.29c.29,0,.55.06.78.17.23.11.43.27.59.49.16.21.29.47.37.78.09.3.13.65.13,1.03,0,.49-.06.89-.19,1.21Z"/>
      <path class="cls-1" d="M55.31,17.88s.09-.07.15-.09l.19-.05c.12-.05.19-.13.19-.25,0-.07-.02-.13-.07-.17-.05-.04-.12-.06-.22-.06h-2.11c-.1,0-.18.02-.22.06-.05.04-.07.1-.07.17,0,.12.06.21.19.25l.19.05c.07.02.12.06.15.09.03.04.05.09.05.15v4.02c0,.06-.02.12-.05.15-.03.04-.08.07-.15.09l-.19.05c-.12.05-.19.13-.19.25,0,.07.02.13.07.17.05.04.12.06.22.06h2.11c.1,0,.17-.02.22-.06.05-.04.07-.1.07-.17,0-.12-.06-.21-.19-.25l-.19-.05c-.07-.02-.12-.06-.15-.09s-.05-.09-.05-.15v-4.02c0-.06.02-.11.05-.15Z"/>
      <path class="cls-1" d="M62.09,22.45s-.09-.08-.17-.12c-.08-.03-.15-.08-.19-.16-.05-.07-.09-.19-.14-.34l-1.22-3.77c-.03-.1-.05-.18-.03-.23.01-.05.05-.08.12-.11.06-.03.11-.06.14-.1.03-.04.05-.09.05-.15,0-.07-.02-.13-.07-.17-.05-.04-.12-.06-.22-.06h-2.26c-.1,0-.18.02-.23.06s-.07.1-.07.17c0,.06.02.11.05.15.03.04.08.08.16.11.1.04.15.09.17.15.01.06,0,.16-.04.3l-1.15,3.59c-.06.18-.11.3-.15.37s-.11.13-.2.17l-.1.05c-.06.03-.11.07-.13.11s-.04.08-.04.13c0,.07.02.12.07.17.05.04.12.06.22.06h1.26c.1,0,.17-.02.22-.06.05-.04.07-.1.07-.17,0-.06-.02-.1-.05-.13-.03-.03-.08-.06-.14-.09l-.16-.05c-.1-.05-.17-.1-.22-.15s-.07-.11-.07-.19c0-.08.02-.17.06-.3l.21-.67h1.89l.29.93c.04.11.06.2.07.25,0,.05-.02.09-.09.12l-.18.05c-.06.03-.11.06-.14.09-.03.04-.05.08-.05.14,0,.07.02.13.07.17.05.04.12.06.22.06h1.93c.1,0,.18-.02.23-.06.05-.04.07-.1.07-.17,0-.06-.02-.11-.05-.15ZM57.99,20.51l.79-2.48.78,2.48h-1.56Z"/>
    </g>
    <g>
      <path class="cls-2" d="M6.6,22.53l-.22-.06c-.09-.02-.15-.05-.19-.09-.04-.04-.06-.1-.06-.19l-.33-4.22c0-.12,0-.2.04-.25.03-.05.1-.09.2-.11l.23-.06c.06-.02.1-.04.12-.06.02-.03.04-.06.04-.1,0-.05-.02-.08-.05-.11-.03-.03-.09-.04-.16-.04h-.94c-.1,0-.18.02-.24.06-.06.04-.11.12-.15.22l-1.47,3.67-1.52-3.69c-.04-.11-.09-.18-.15-.21-.06-.04-.13-.05-.23-.05h-.93c-.14,0-.21.05-.21.15,0,.04.01.08.04.1.03.03.07.05.13.06l.21.04c.1.02.16.06.2.12.04.06.05.14.04.25l-.36,4.11c-.01.11-.04.19-.09.25-.05.06-.12.1-.22.12l-.19.06c-.05.02-.1.04-.13.06-.03.02-.05.06-.05.1s.02.08.05.11c.03.03.09.04.16.04h1.3c.07,0,.12-.01.16-.04.03-.03.05-.06.05-.11,0-.04-.01-.07-.04-.09-.03-.02-.06-.04-.1-.06l-.23-.07c-.1-.04-.18-.08-.24-.13-.05-.05-.07-.13-.06-.24l.31-3.53,1.53,3.73c.03.07.06.12.08.16.03.03.06.06.09.07.03.01.07.02.11.02.05,0,.1-.01.14-.04.04-.03.08-.09.11-.19l1.5-3.77.3,3.67c0,.08,0,.14-.04.18-.03.04-.1.07-.21.1l-.22.06c-.06.02-.1.04-.12.06-.02.03-.04.06-.04.1,0,.05.02.08.05.11.03.03.09.04.16.04h1.76c.07,0,.12-.01.16-.04.03-.03.05-.07.05-.11,0-.04-.01-.07-.04-.1-.02-.03-.06-.05-.12-.06Z"/>
      <path class="cls-2" d="M12.33,22.52c-.09-.02-.16-.06-.22-.11-.05-.05-.09-.14-.13-.25l-1.48-4.36c-.02-.08-.03-.13-.01-.17.01-.03.06-.06.14-.07.07-.02.12-.04.15-.06.03-.03.04-.06.04-.1s-.02-.08-.05-.1c-.03-.03-.09-.04-.16-.04h-1.65c-.07,0-.12.01-.16.04-.03.03-.05.06-.05.11,0,.04.01.07.04.1.03.03.08.05.16.07.1.02.15.06.17.1.02.04,0,.11-.02.21l-1.4,4.18c-.05.15-.09.25-.13.3-.04.06-.1.1-.17.13l-.15.05c-.06.02-.1.05-.12.07-.02.02-.03.05-.03.09,0,.04.02.08.05.1.03.03.08.04.15.04h1.24c.07,0,.12-.01.16-.04.03-.03.05-.06.05-.11,0-.04-.01-.07-.04-.09-.03-.02-.06-.04-.12-.06l-.27-.05c-.08-.03-.14-.06-.18-.1-.04-.04-.06-.09-.06-.15s.02-.14.05-.24l.35-1.05h2.12l.41,1.23c.03.1.05.17.05.21,0,.04-.04.07-.11.09l-.28.04c-.05.02-.09.04-.12.06-.03.02-.04.05-.04.09,0,.05.02.08.05.11.03.03.08.04.15.04h1.59c.07,0,.12-.01.16-.04.03-.03.05-.06.05-.11,0-.04-.01-.07-.04-.1-.03-.03-.08-.05-.15-.07ZM8.6,20.61l.95-2.84.95,2.84h-1.9Z"/>
      <path class="cls-2" d="M17.18,17.31c-.02-.08-.05-.14-.09-.17-.04-.03-.09-.05-.16-.05-.05,0-.1.01-.14.04-.04.03-.09.05-.14.08s-.12.04-.21.04h-2.85c-.09,0-.16-.01-.21-.04-.05-.03-.1-.06-.14-.08-.04-.03-.09-.04-.14-.04-.07,0-.12.02-.16.05-.04.03-.07.09-.09.17l-.27,1.26c-.01.06,0,.12.01.16s.06.07.11.08c.05.01.1,0,.14-.02.04-.02.07-.06.1-.12.13-.31.24-.53.33-.69.09-.15.19-.26.29-.31.1-.05.22-.08.37-.08h.63v4.67c0,.06-.02.1-.05.14s-.08.06-.15.08l-.26.05c-.1.03-.15.08-.15.16,0,.05.02.08.05.11.03.03.08.04.15.04h1.76c.13,0,.2-.05.2-.15,0-.08-.05-.13-.15-.16l-.26-.05c-.06-.02-.11-.04-.15-.08-.03-.04-.05-.08-.05-.14v-4.67h.63c.15,0,.28.03.38.08.1.05.2.16.29.31.09.15.2.38.32.69.03.06.06.09.1.12.04.02.08.03.13.02.05-.01.09-.04.11-.08.02-.04.03-.09.01-.16l-.27-1.26Z"/>
      <path class="cls-2" d="M22.89,21.31s-.07,0-.1.02c-.03.02-.06.05-.08.1-.14.32-.35.57-.63.75-.28.18-.61.27-1,.27s-.75-.1-1.06-.3c-.31-.2-.56-.5-.74-.88-.18-.39-.27-.85-.27-1.4,0-.36.04-.69.13-.98.09-.3.21-.55.38-.76.16-.21.35-.37.57-.49.22-.11.46-.17.72-.17s.49.04.71.13c.22.09.41.23.59.42.18.19.34.45.49.76.02.05.06.09.1.11.04.02.09.03.14.02.05,0,.09-.03.12-.07.03-.04.03-.09.01-.14l-.43-1.35c-.02-.06-.04-.1-.07-.12-.03-.02-.06-.04-.1-.04-.06,0-.11.02-.14.07-.03.05-.06.1-.08.14-.03.05-.07.07-.14.07-.05,0-.12-.03-.22-.09-.1-.06-.23-.11-.4-.17-.17-.06-.4-.09-.68-.09-.38,0-.73.07-1.05.22-.32.15-.6.35-.84.62-.24.27-.42.58-.55.94s-.2.75-.2,1.18c0,.56.11,1.06.33,1.5.22.44.54.78.95,1.03.41.25.9.37,1.47.37.34,0,.65-.05.92-.14.27-.09.49-.22.68-.37.19-.15.33-.32.43-.5.1-.18.15-.36.15-.53,0-.04,0-.07-.03-.09s-.04-.03-.07-.04Z"/>
      <path class="cls-2" d="M28.89,17.69s.08-.06.15-.08l.26-.05c.1-.03.16-.08.16-.16,0-.05-.02-.08-.05-.11s-.08-.04-.15-.04h-1.76c-.07,0-.12.01-.15.04s-.05.06-.05.11c0,.08.05.13.15.16l.26.05c.06.02.11.04.15.08.03.04.05.08.05.14v2.19h-2.64v-2.19c0-.06.02-.1.05-.14.03-.04.08-.06.14-.08l.26-.05c.1-.03.15-.08.15-.16,0-.05-.02-.08-.05-.11-.03-.03-.08-.04-.15-.04h-1.76c-.07,0-.12.01-.15.04s-.05.06-.05.11c0,.08.05.13.16.16l.26.05c.06.02.11.04.15.08.03.04.05.08.05.14v4.43c0,.06-.02.1-.05.14-.03.04-.08.06-.15.08l-.26.05c-.1.03-.16.08-.16.16,0,.05.02.08.05.11.03.03.08.04.15.04h1.76c.07,0,.12-.01.15-.04.03-.03.05-.06.05-.11,0-.08-.05-.13-.15-.16l-.26-.05c-.06-.02-.11-.04-.14-.08-.03-.04-.05-.08-.05-.14v-1.9h2.64v1.9c0,.06-.02.1-.05.14-.03.04-.08.06-.15.08l-.26.05c-.1.03-.15.08-.15.16,0,.05.02.08.05.11.03.03.08.04.15.04h1.76c.07,0,.12-.01.15-.04.03-.03.05-.06.05-.11,0-.08-.05-.13-.16-.16l-.26-.05c-.06-.02-.11-.04-.15-.08-.03-.04-.05-.08-.05-.14v-4.43c0-.06.02-.1.05-.14Z"/>
    </g>
  </g>
  <g>
    <path class="cls-2" d="M42.87,0l-4.43,6.05-4.56-6.05h-5.62l-4.43,6.05L19.27,0h-2.81v13.95h2.9V4.77l4.21,5.63h.37l4.21-5.43v2.76c.37-.29.83-.45,1.3-.45.57,0,1.1.22,1.5.62l.1.1h0s.09-.1.09-.1c.4-.4.93-.62,1.5-.62.48,0,.94.16,1.31.46v-2.97l4.21,5.63h.37l4.21-5.43v8.99h2.9V0h-2.81Z"/>
    <path class="cls-1" d="M33.96,8.09c-.35-.35-.81-.54-1.3-.54s-.96.19-1.3.54l-.29.29-.29-.29c-.35-.35-.81-.54-1.3-.54-.49,0-.96.19-1.3.54-.35.35-.54.81-.54,1.3-.17,1.8,3.18,4.28,3.43,4.28.47,0,3.69-2.97,3.43-4.28,0-.49-.19-.96-.54-1.3Z"/>
  </g>
</svg>